<?xml version="1.0" encoding="UTF-8"?> <svg xmlns="http://www.w3.org/2000/svg" width="47" height="45" viewBox="0 0 47 45" fill="none"> <g clip-path="url(#clip0_233_457)"> <rect width="46.7308" height="45" rx="10" fill="white"></rect> <rect width="46.7308" height="45" rx="10" fill="white"></rect> <path d="M26.0383 24.2763L36.5983 21.4469V16.0467H9.39859V21.4469L19.9582 24.2763V22.6805H26.0383V24.2763ZM17.2385 12.9207V9.56067H28.7585V12.9207H27.1582V11.1609H18.8387V12.9207H17.2385ZM37.7186 24.7608V36.4407H8.27834V24.7608H9.87859V34.8404H36.1183V24.7608H37.7186ZM37.6048 22.8313L26.0383 25.9306V28.7607H19.9582V25.9306L7.79834 22.6726V14.4465H38.1986V22.6726L37.6048 22.8313ZM24.4381 24.2808H21.5585V27.1604H24.4381V24.2808Z" fill="#1F52DE"></path> </g> <defs> <clipPath id="clip0_233_457"> <rect width="46.7308" height="45" fill="white"></rect> </clipPath> </defs> </svg> 