<?xml version="1.0" encoding="UTF-8"?> <svg xmlns="http://www.w3.org/2000/svg" width="47" height="45" viewBox="0 0 47 45" fill="none"> <rect width="46.7308" height="45" rx="10" fill="white"></rect> <path d="M8.24125 18.3557C7.94305 19.5659 7.80774 20.7557 7.7998 22.001C7.86519 30.4724 14.5285 37.1357 22.9999 37.2011C27.0493 37.1437 30.5284 35.7725 33.4945 32.9953L34.3782 33.9141L35.9304 29.5442L31.5031 30.9241L32.3856 31.8421C29.7687 34.2954 26.5852 35.5763 22.9999 35.6009C15.4885 35.6009 9.40006 29.5124 9.40006 22.001C9.3925 20.9299 9.53499 19.7775 9.79464 18.7381L8.24125 18.3557Z" fill="#1F52DE"></path> <path d="M37.759 25.6456C38.0572 24.4354 38.1925 23.2456 38.2005 22.0002C38.1351 13.5288 31.4718 6.8655 23.0003 6.80011C18.951 6.85756 15.4719 8.22877 12.5057 11.006L11.6221 10.0872L10.0698 14.4571L14.4972 13.0771L13.6146 12.1591C16.2316 9.70581 19.4151 8.42493 23.0003 8.40036C30.5118 8.40036 36.6002 14.4888 36.6002 22.0002C36.6078 23.0714 36.4653 24.2237 36.2056 25.2631L37.759 25.6456Z" fill="#1F52DE"></path> <path d="M23.0004 14.0005C25.2057 14.0005 27.2047 14.8962 28.6538 16.3442L28.6568 16.3472C30.1047 17.7963 31.0005 19.7953 31.0005 22.0006C31.0005 24.206 30.1047 26.205 28.6568 27.654L28.6538 27.6571C27.2047 29.105 25.2057 30.0007 23.0004 30.0007C20.795 30.0007 18.796 29.105 17.347 27.6571L17.3439 27.654C15.896 26.205 15.0002 24.206 15.0002 22.0006C15.0002 19.7953 15.896 17.7963 17.3439 16.3472L17.347 16.3442C18.796 14.8962 20.795 14.0005 23.0004 14.0005ZM27.526 17.472C26.3706 16.3162 24.7699 15.6007 23.0004 15.6007C21.2308 15.6007 19.6302 16.3162 18.4748 17.472L18.4717 17.475C17.316 18.6304 16.6005 20.231 16.6005 22.0006C16.6005 23.7702 17.316 25.3708 18.4717 26.5262L18.4748 26.5292C19.6302 27.685 21.2308 28.4005 23.0004 28.4005C24.7699 28.4005 26.3706 27.685 27.526 26.5292L27.529 26.5262C28.6848 25.3708 29.4002 23.7702 29.4002 22.0006C29.4002 20.231 28.6848 18.6304 27.529 17.475L27.526 17.472Z" fill="#1F52DE"></path> <path d="M20.9204 17.6802C21.3168 17.6802 21.6782 17.8424 21.9382 18.1024C22.1982 18.3662 22.3604 18.7253 22.3604 19.1206C22.3604 19.5171 22.1982 19.8784 21.9382 20.1384C21.6782 20.3985 21.3168 20.5606 20.9204 20.5606C20.525 20.5606 20.166 20.3985 19.9052 20.1384C19.6421 19.8784 19.48 19.5171 19.48 19.1206C19.48 18.7253 19.6421 18.3662 19.9022 18.1054L19.9052 18.1024C20.166 17.8424 20.525 17.6802 20.9204 17.6802Z" fill="#1F52DE"></path> <path d="M25.0806 23.4406C25.476 23.4406 25.835 23.6028 26.0958 23.8628C26.3589 24.1228 26.521 24.4841 26.521 24.8806C26.521 25.276 26.3589 25.635 26.0988 25.8958L26.0958 25.8988C25.835 26.1588 25.476 26.321 25.0806 26.321C24.6842 26.321 24.3228 26.1588 24.0628 25.8988C23.8028 25.635 23.6406 25.276 23.6406 24.8806C23.6406 24.4841 23.8028 24.1228 24.0628 23.8628C24.3228 23.6028 24.6842 23.4406 25.0806 23.4406Z" fill="#1F52DE"></path> <path d="M19.5549 24.3152L25.3149 18.5552L26.4458 19.6861L20.6858 25.4461L19.5549 24.3152Z" fill="#1F52DE"></path> </svg> 