<?xml version="1.0" encoding="UTF-8"?> <svg xmlns="http://www.w3.org/2000/svg" width="47" height="45" viewBox="0 0 47 45" fill="none"> <rect width="46.7308" height="45" rx="10" fill="white"></rect> <rect width="46.7308" height="45" rx="10" fill="white"></rect> <path fill-rule="evenodd" clip-rule="evenodd" d="M36.2406 23.4849C36.2406 23.89 36.3434 24.5091 36.4126 24.8568C36.6639 26.1162 36.6564 25.4797 36.6564 26.8694C36.6564 29.4199 35.7961 29.3961 36.2792 31.0466C36.6726 32.3913 36.8846 33.5913 37.0903 34.9852C37.1798 35.5899 37.3367 36.1913 36.5377 36.1913H32.0253C31.4115 36.1913 31.407 35.8137 31.3076 35.3057L30.7335 32.6143C30.6314 32.1381 30.5736 31.671 30.4232 31.262C30.021 30.1724 29.4186 29.9755 28.9208 29.4989C28.3864 28.9871 28.0402 27.7357 27.9876 27.1068C29.3335 27.1068 30.6794 27.1068 32.0253 27.1068C33.6331 27.1068 34.386 27.0418 34.956 25.9408C35.2428 25.3867 35.1721 24.9245 35.1721 24.138C35.1721 23.1164 35.0863 21.0852 35.3562 20.2254C35.4809 19.8293 35.6854 18.9725 36.1813 18.9725C37.2921 18.9725 36.7781 20.1638 36.6635 20.5232C36.3574 21.4832 36.2406 22.4281 36.2406 23.4849ZM12.8472 10.3038C12.8472 10.7498 13.2909 11.1976 13.9614 10.5279C14.1837 10.306 14.9252 9.6809 14.9252 9.35397C14.9252 9.11095 14.751 8.81955 14.3908 8.81955C14.0314 8.81955 12.8472 10.1004 12.8472 10.3038ZM12.8472 12.8568C12.8472 13.0999 13.0211 13.3913 13.3813 13.3913C13.7112 13.3913 14.2774 12.7034 14.6134 12.367L16.9291 10.0513C17.1011 9.87971 17.3812 9.70018 17.4363 9.43183C17.4877 9.18201 17.3471 8.81955 16.8845 8.81955C16.5599 8.81955 16.0995 9.39668 15.7715 9.72475L13.7524 11.7438C13.5355 11.9607 12.8472 12.531 12.8472 12.8568ZM9.10663 19.6256C9.10663 18.9755 10.0024 18.6497 10.3448 19.3969C11.6555 22.2577 9.69624 25.9582 12.0392 26.9057C12.625 27.1427 13.1345 27.1068 13.9157 27.1068C15.2816 27.1068 16.6472 27.1068 18.0127 27.1068C17.9632 27.7024 17.6151 28.9663 17.1098 29.4694C16.88 29.698 16.6732 29.7853 16.2462 30.209C15.5409 30.9094 15.4789 31.5651 15.2869 32.5157L14.7026 35.2562C14.5979 35.7876 14.6047 36.1913 13.975 36.1913H9.46266C8.70751 36.1913 8.80692 35.6818 8.90178 35.0362C8.98871 34.4417 9.07715 33.9432 9.16597 33.4005L9.7072 31.0919C10.2072 29.4097 9.34399 29.6156 9.34399 26.157C9.34399 25.671 9.50197 25.2858 9.58777 24.8568C10.1657 21.9595 9.10663 20.2186 9.10663 19.6256ZM29.8283 15.4692C30.4394 15.4692 30.3669 16.0135 30.6118 17.0608L31.6723 21.8782C31.8915 22.9195 32.7377 22.5249 32.7377 22.06C32.7377 21.5815 31.9097 18.0223 31.74 17.2982C31.6035 16.715 31.3197 16.0037 32.0846 16.0037C32.6024 16.0037 32.582 16.6738 32.8043 17.4218C33.1433 18.5635 33.5564 20.4155 33.9128 21.7161C34.2284 22.8662 34.1033 23.8504 34.1033 25.2068C34.1033 26.3199 32.2079 26.0383 31.3125 26.0383C30.1053 26.0383 28.8981 26.0383 27.6909 26.0383C27.6146 25.7114 25.8503 19.005 25.8503 18.7351C25.8503 18.3341 26.6546 17.9426 26.8734 18.8992L27.8047 23.1338C27.9997 24.0665 27.9672 24.4944 28.6407 24.4944C28.8142 24.4944 29.0565 24.1984 29.0565 24.0193L27.7945 18.2155C27.6509 17.5408 27.3644 16.8945 28.225 16.8945C28.6094 16.8945 28.736 17.9641 28.8339 18.4233L29.8143 22.8458C30.0414 23.8401 30.8971 23.3719 30.8971 22.9508L29.4053 16.1276C29.3581 15.8412 29.4065 15.4692 29.8283 15.4692ZM15.1032 23.0102C15.1032 23.6444 15.9434 23.7959 16.1396 23.037C16.5292 21.5278 16.9722 19.2261 17.3471 17.5945C17.5108 16.8801 17.5773 16.8945 18.0127 16.8945C18.6855 16.8945 18.1548 18.3976 18.0377 18.9974L17.3052 22.3023C17.2455 22.5872 17.1873 22.8533 17.1219 23.1288C17.0845 23.2883 16.9439 23.8254 16.9439 23.96C16.9439 24.3889 17.8207 24.8436 18.038 23.8666L18.9478 19.7295C19.1825 18.6274 19.1307 18.3194 19.794 18.3194C19.9618 18.3194 20.15 18.5669 20.15 18.7351C20.15 19.0216 20.0072 19.3622 19.9361 19.649C19.853 19.9843 19.7944 20.2171 19.7109 20.552L18.3094 26.0383L12.9035 26.041C12.4031 26.0315 11.8971 25.6849 11.8971 25.2068V22.6538C11.8971 22.3423 13.0109 18.0537 13.1825 17.4671C13.2713 17.1629 13.3261 16.9402 13.404 16.6201C13.5052 16.2047 13.5472 16.0037 13.975 16.0037C14.669 16.0037 14.3757 16.8129 14.2721 17.2505L13.5714 20.4095C13.4244 21.0369 12.8858 22.5351 13.7377 22.5351C14.102 22.5351 14.2192 22.289 14.2982 21.9674L15.5927 16.1371C15.6777 15.721 15.6966 15.4692 16.1721 15.4692C16.908 15.4692 16.5077 16.5457 16.3841 17.1065C16.2518 17.7079 15.1032 22.6655 15.1032 23.0102ZM14.8065 15.1726C13.7441 14.6102 12.7414 15.1389 12.4678 16.0403L11.8971 18.1414V9.59133C11.8971 9.10528 11.8347 8.60903 12.024 8.29306C12.2043 7.99183 12.552 7.81004 13.0252 7.81004H32.9751C33.4207 7.81004 33.7669 7.97407 33.9536 8.25678C34.1717 8.58711 34.1033 9.02327 34.1033 9.53199L34.0186 17.929L33.8187 17.1791C33.7 16.7471 33.5768 15.9927 33.3663 15.6718C32.8523 14.8883 32.0087 14.7413 31.1938 15.1726C30.2062 13.6974 28.3728 14.535 28.344 15.8257C26.5253 15.8257 26.7926 17.0619 26.5321 17.2199C26.4943 17.243 25.9168 17.2861 25.7301 17.3681C25.3114 17.5525 24.9689 17.9377 24.8559 18.3946C24.7221 18.9343 24.9247 19.4272 25.0543 19.9465L26.6221 26.0383H19.3783L20.1621 23.0219C20.3383 22.317 21.3149 19.0617 21.1584 18.4411C20.8349 17.1587 19.656 17.2917 19.5098 17.2381C19.2086 17.127 19.5238 17.0888 19.2146 16.5831C18.8026 15.9092 18.3234 15.8257 17.6563 15.8257C17.6264 14.4745 15.7635 13.7435 14.8065 15.1726ZM10.8282 18.3194C10.3214 17.98 9.68717 17.7544 9.00572 18.1002C8.73586 18.237 8.53517 18.4048 8.36773 18.6493C7.47992 19.9465 8.69088 20.3301 8.69088 23.5442C8.69088 25.0636 7.94896 25.4393 8.43577 28.4308C8.77743 30.5284 9.04389 29.3564 8.51249 31.5005C8.22789 32.6495 7.80005 34.6424 7.80005 35.8349C7.80005 36.4978 8.50304 37.2008 9.16597 37.2008H14.2721C14.7687 37.2008 15.2109 36.8255 15.4139 36.5019C15.6324 36.1538 15.7265 35.5393 15.8213 35.0687C15.965 34.3567 16.423 31.8577 16.7042 31.3206L17.1302 30.7964C17.5289 30.4392 17.7818 30.3511 18.1242 29.8904C18.4224 29.489 18.5657 29.1693 18.7187 28.6443C18.8128 28.3208 19.0744 27.4307 19.0816 27.1068H26.9188C26.926 27.4178 27.1826 28.3064 27.2676 28.5986C27.9389 30.9041 29.1022 30.2098 29.5206 31.9268C29.6427 32.4272 29.7421 32.9352 29.8434 33.4447C29.9432 33.9458 30.0698 34.5177 30.1692 35.0189C30.2584 35.4675 30.3672 36.1387 30.5638 36.4653C30.7705 36.8096 31.2157 37.2008 31.7282 37.2008H36.8344C37.4848 37.2008 38.2003 36.5643 38.2003 35.7162C38.2003 33.9542 37.1908 30.6236 37.1908 30.1943C37.1908 29.4395 38.1644 27.5656 37.4988 24.8988C36.8563 22.323 37.9626 20.3271 37.9626 19.6256C37.9626 18.57 36.7278 17.2778 35.1721 18.3194C35.1721 17.3409 35.2564 8.88418 35.1158 8.34106C34.8928 7.48122 34.1449 6.8009 33.2722 6.8009H12.7282C12.2172 6.8009 11.8271 7.05338 11.5384 7.27334C10.4918 8.0712 10.8282 10.0377 10.8282 11.61C10.8282 13.8467 10.8282 16.083 10.8282 18.3194Z" fill="#1F52DE"></path> </svg> 