<?xml version="1.0" encoding="UTF-8"?> <svg xmlns="http://www.w3.org/2000/svg" width="47" height="45" viewBox="0 0 47 45" fill="none"> <rect width="46.7308" height="45" rx="10" fill="white"></rect> <path d="M34.9474 22.3177V36.4955H11.0532V22.3177H12.6463V34.9024H33.3543V22.3177H34.9474Z" fill="#1F52DE"></path> <path d="M28.2571 11.1666V7.50275H33.9918V14.99H32.3983V9.0962H29.8502V11.1666H28.2571Z" fill="#1F52DE"></path> <path d="M19.3363 19.9279C20.1273 19.9279 20.8443 20.2492 21.3632 20.7681C21.8822 21.287 22.2034 22.0044 22.2034 22.7954C22.2034 23.5869 21.8822 24.3035 21.3632 24.8224C20.8443 25.3413 20.1273 25.6626 19.3363 25.6626C18.5448 25.6626 17.8279 25.3413 17.3089 24.8224C16.7904 24.3035 16.4688 23.5869 16.4688 22.7954C16.4688 22.0044 16.7904 21.287 17.3089 20.7681C17.8279 20.2492 18.5448 19.9279 19.3363 19.9279ZM20.2373 21.894C20.0075 21.6642 19.6882 21.5214 19.3363 21.5214C18.984 21.5214 18.665 21.6642 18.4349 21.894C18.2051 22.1242 18.0622 22.4436 18.0622 22.7954C18.0622 23.1477 18.2051 23.4667 18.4349 23.6965C18.665 23.9267 18.984 24.0695 19.3363 24.0695C19.6882 24.0695 20.0075 23.9267 20.2373 23.6965C20.4675 23.4667 20.6104 23.1477 20.6104 22.7954C20.6104 22.4436 20.4675 22.1242 20.2373 21.894Z" fill="#1F52DE"></path> <path d="M26.3456 26.9374C27.137 26.9374 27.8536 27.2591 28.3725 27.778C28.8914 28.2969 29.2127 29.0139 29.2127 29.805C29.2127 30.5964 28.8914 31.313 28.3725 31.8319C27.8536 32.3509 27.137 32.6725 26.3456 32.6725C25.5545 32.6725 24.8375 32.3509 24.3186 31.8319C23.7997 31.313 23.478 30.5964 23.478 29.805C23.478 29.0139 23.7997 28.2969 24.3186 27.778C24.8375 27.2591 25.5545 26.9374 26.3456 26.9374ZM27.2466 28.9039C27.0168 28.6738 26.6978 28.5309 26.3456 28.5309C25.9937 28.5309 25.6743 28.6738 25.4441 28.9039C25.2143 29.1337 25.0715 29.4531 25.0715 29.805C25.0715 30.1572 25.2143 30.4762 25.4441 30.7064C25.6743 30.9362 25.9937 31.079 26.3456 31.079C26.6978 31.079 27.0168 30.9362 27.2466 30.7064C27.4768 30.4762 27.6196 30.1572 27.6196 29.805C27.6196 29.4531 27.4768 29.1337 27.2466 28.9039Z" fill="#1F52DE"></path> <path d="M18.2954 30.0382L27.2162 21.1174L28.3421 22.2433L19.4213 31.1641L18.2954 30.0382Z" fill="#1F52DE"></path> <path d="M7.80005 21.1019L23.0002 6.82697L38.2003 21.1019L37.111 22.2592L23.0002 9.007L8.88931 22.2592L7.80005 21.1019Z" fill="#1F52DE"></path> </svg> 