<?xml version="1.0" encoding="UTF-8"?> <svg xmlns="http://www.w3.org/2000/svg" width="47" height="45" viewBox="0 0 47 45" fill="none"> <g clip-path="url(#clip0_301_59)"> <rect width="46.7308" height="45" rx="10" fill="white"></rect> <rect width="46.7308" height="45" rx="10" fill="white"></rect> <path d="M10.2 20.3531V17.633H12.9202V19.2332H11.8003V20.3531H10.2ZM13.8802 15.1608H20.904L32.2426 8.61462L36.0225 15.1608H38.1999V30.8409H25.0967L13.7585 37.3867L9.97895 30.8409H7.80005V15.1608H11.9602V16.761H9.4003V29.2406H36.5997V16.761H13.8802V15.1608ZM24.0959 15.1608H34.1796L31.6587 10.7943L24.0959 15.1608ZM21.9049 30.8409H11.8181L14.3398 35.2085L21.9049 30.8409ZM11.8003 26.1131V27.233H12.9202V28.8332H10.2V26.1131H11.8003ZM34.2 20.2809V19.161H33.0802V17.5608H35.7999V20.2809H34.2ZM35.7999 26.0409V28.761H33.0802V27.1608H34.2V26.0409H35.7999ZM23.0002 28.3336C22.4896 28.3336 21.996 28.2527 21.5194 28.0905C21.0431 27.9284 20.6232 27.6661 20.26 27.3025C20.0344 27.0667 19.8326 26.7892 19.656 26.4702C19.4792 26.1509 19.342 25.7189 19.2433 25.1739C19.1454 24.6289 19.0963 23.9043 19.0963 23.001C19.0963 22.0973 19.1454 21.3732 19.2433 20.8278C19.342 20.2828 19.4792 19.8485 19.656 19.5242C19.8326 19.1999 20.0344 18.9248 20.26 18.6992C20.6232 18.3359 21.0431 18.0729 21.5194 17.9111C21.996 17.749 22.4896 17.6681 23.0002 17.6681C23.5108 17.6681 24.0044 17.749 24.4806 17.9111C24.9568 18.0729 25.3767 18.3359 25.74 18.6992C25.9758 18.9248 26.1795 19.1999 26.3515 19.5242C26.5235 19.8485 26.6584 20.2828 26.7566 20.8278C26.8549 21.3732 26.904 22.0973 26.904 23.001C26.904 23.9043 26.8549 24.6289 26.7566 25.1739C26.6584 25.7189 26.5235 26.1509 26.3515 26.4702C26.1795 26.7892 25.9758 27.0667 25.74 27.3025C25.3767 27.6661 24.9568 27.9284 24.4806 28.0905C24.0044 28.2527 23.5108 28.3336 23.0002 28.3336ZM23.0002 26.33C23.5403 26.33 23.987 26.1581 24.3408 25.8145C24.6942 25.4706 24.8858 25.0287 24.9153 24.4886C24.9349 24.3118 24.9497 24.0884 24.9595 23.8185C24.9693 23.5483 24.9742 23.2758 24.9742 23.001C24.9742 22.716 24.9693 22.4409 24.9595 22.1759C24.9497 21.9106 24.9349 21.6895 24.9153 21.513C24.8858 20.9631 24.6942 20.5186 24.3408 20.18C23.987 19.8406 23.5403 19.6713 23.0002 19.6713C22.4601 19.6713 22.013 19.8406 21.6596 20.18C21.3062 20.5186 21.1146 20.9631 21.0851 21.513C21.0749 21.6895 21.0628 21.9106 21.048 22.1759C21.0333 22.4409 21.0261 22.716 21.0261 23.001C21.0261 23.2758 21.0333 23.5483 21.048 23.8185C21.0628 24.0884 21.0749 24.3118 21.0851 24.4886C21.1146 25.0287 21.3062 25.4706 21.6596 25.8145C22.013 26.1581 22.4601 26.33 23.0002 26.33Z" fill="#1F52DE"></path> </g> <defs> <clipPath id="clip0_301_59"> <rect width="46.7308" height="45" fill="white"></rect> </clipPath> </defs> </svg> 