<?xml version="1.0" encoding="UTF-8"?> <svg xmlns="http://www.w3.org/2000/svg" width="47" height="45" viewBox="0 0 47 45" fill="none"> <rect width="46.7308" height="45" rx="10" fill="white"></rect> <rect width="46.7308" height="45" rx="10" fill="white"></rect> <path fill-rule="evenodd" clip-rule="evenodd" d="M27.7542 36.2H25.0019V35.1995C27.0085 35.1995 26.5277 35.0147 27.5293 35.6742C27.6669 35.7653 28.326 36.2 27.7542 36.2ZM37.0117 20.6873H38.0126V19.6865H37.0117V20.6873ZM9.98964 20.1869H10.9905V19.186H9.98964V20.1869ZM7.988 20.1869H8.98882V19.186H7.988V20.1869ZM23.5007 12.1803H24.5015V11.1795H23.5007V12.1803ZM9.8018 23.9403C9.87361 24.2487 10.0928 24.6788 10.1144 24.9408C10.4254 24.8682 10.913 24.6928 11.1779 24.5658C11.111 24.426 10.8786 23.7888 10.865 23.6274C10.4379 23.6625 10.2062 23.9063 9.8018 23.9403ZM36.8243 25.8169C37.1932 25.9023 37.5159 26.1211 37.8878 26.1294C37.9661 25.793 38.1316 25.4861 38.2 25.1913C37.9476 25.1324 37.4082 24.926 37.1996 24.8157C37.0673 25.0655 36.8953 25.5103 36.8243 25.8169ZM7.80054 24.6906C7.8818 25.0409 8.08589 25.3626 8.11273 25.6914C8.44079 25.6154 8.8486 25.3924 9.17629 25.3164C9.1075 25.0209 8.94195 24.7147 8.86334 24.3776C8.49181 24.3859 8.16904 24.6048 7.80054 24.6906ZM7.80054 13.6815C8.15166 13.7632 8.47707 14.0482 8.86334 14.0572C8.89547 13.674 9.14378 13.5084 9.17629 13.1184C8.8554 13.0439 8.49899 12.7703 8.17547 12.7435C8.08211 12.9196 7.8183 13.4646 7.80054 13.6815ZM36.8243 13.6192C36.8579 13.7639 36.9297 13.9261 36.994 14.0746C37.0669 14.2417 37.1297 14.4114 37.1996 14.5573C37.5227 14.5304 37.8795 14.2564 38.2 14.182C38.1944 13.9057 37.9332 13.3856 37.8251 13.1811C37.6059 13.2972 37.0707 13.5617 36.8243 13.6192ZM34.8226 14.4945L35.198 15.433C35.5052 15.3615 36.0022 15.1321 36.2611 14.9953C36.1001 14.6907 35.983 14.3585 35.8235 14.0572C35.5026 14.2266 35.1511 14.3373 34.8226 14.4945ZM16.5573 7.36369C16.6284 7.66718 16.8586 8.10636 16.9954 8.36488C17.1745 8.34977 17.7792 8.07084 17.9334 7.9892C17.8836 7.7749 17.8152 7.70762 17.7282 7.50655C17.636 7.29452 17.5929 7.17206 17.4958 6.98876C17.2286 7.01106 16.7641 7.25446 16.5573 7.36369ZM9.59921 7.53641L10.6632 8.56671C10.9092 8.39436 11.2051 8.04173 11.3658 7.80173C11.0891 7.38863 10.625 7.18945 10.3649 6.80054L9.59921 7.53641ZM14.6335 12.3202C14.7847 12.5545 15.6555 13.3712 15.9318 13.5564C16.1087 13.2923 16.4685 13.1384 16.5573 12.8058C16.4001 12.5711 16.1858 12.4041 15.9794 12.1954L15.3063 11.6175L14.6335 12.3202ZM26.5655 11.6799C26.8747 11.7521 27.1952 11.9834 27.504 12.0552C27.6242 11.5382 28.1159 10.9622 28.2546 10.3665L27.3271 9.90655C27.1959 10.4451 26.5995 11.2729 26.5655 11.6799ZM33.6189 9.35021L34.337 10.0388L36.4017 8.00469L35.6832 7.31644L33.6189 9.35021ZM17.5067 9.38762L18.3915 11.2846C18.5034 11.5072 18.6277 11.6886 18.6841 11.9301L19.6225 11.4924C19.5666 11.2506 19.4415 11.0691 19.33 10.8465C19.2113 10.6099 19.158 10.4353 19.0393 10.1987C18.8821 9.88425 18.503 9.22359 18.4339 8.92766L17.5067 9.38762ZM9.8018 14.5573L12.3042 15.6208C12.4078 15.425 12.6584 14.8713 12.6792 14.6196C12.3859 14.5516 12.2868 14.4764 12.0529 14.3709L10.1771 13.5564C10.1026 13.8769 9.82863 14.2337 9.8018 14.5573ZM11.1628 9.03764C11.424 9.21754 11.6016 9.44507 11.8189 9.66277C11.9353 9.7788 12.0128 9.86649 12.1311 9.9761C12.2831 10.1167 12.3541 10.1382 12.5083 10.2868C12.8613 10.6266 13.4558 11.3209 13.8051 11.5548C13.9056 11.4875 14.4196 10.9142 14.4933 10.8042L11.9285 8.30214L11.1628 9.03764ZM31.0068 20.6873H36.0109V19.6865H31.0068V20.6873ZM31.3198 23.8148C31.6191 23.8398 32.1467 24.0934 32.4378 24.1981L35.8235 25.4412C35.9338 25.2325 36.1398 24.6936 36.1988 24.4403C35.3896 24.2517 32.3743 22.9867 31.6323 22.814C31.6104 23.0759 31.3916 23.506 31.3198 23.8148ZM19.2472 35.1995H20.9986V36.2H18.2464C17.6746 36.2 18.3337 35.7653 18.4713 35.6742C18.6107 35.5828 19.1297 35.1995 19.2472 35.1995ZM10.49 28.944L12.1787 29.5695C14.2238 30.3761 13.7276 30.3848 15.7625 29.5877C16.066 29.4694 16.3449 29.3666 16.6272 29.2642C16.8899 29.1689 17.2388 29.0041 17.4958 28.944V31.6967H10.49V28.944ZM10.49 27.693V26.6922H17.4958C17.4958 28.1156 17.8764 27.6862 15.8165 28.4531C13.5507 29.2963 14.4733 29.336 12.215 28.4701C11.8843 28.3435 11.6084 28.2516 11.303 28.1311C10.9058 27.9742 10.49 27.9255 10.49 27.693ZM21.061 34.1983H19.5602L20.4982 23.6897H25.5023C25.5734 23.9947 25.6165 24.576 25.6274 24.9408L26.4404 34.1983H24.9396C24.9116 33.8627 24.8069 33.4715 24.7513 33.1355C24.6875 32.7474 24.6198 32.4118 24.5552 32.0183C24.4342 31.2805 24.2895 30.5583 24.1621 29.7842C24.0347 29.0132 23.8866 28.2683 23.7687 27.5501C23.6201 26.6465 23.608 25.6914 23.0003 25.6914C22.3918 25.6914 22.3823 26.6344 22.2406 27.4961L21.061 34.1983ZM12.9921 25.0659C13.8202 25.259 14.1656 25.259 14.9937 25.0659V25.6914H12.9921V25.0659ZM12.9921 23.3772V22.6889H14.6808C14.7454 22.9308 14.9937 23.2369 14.9937 23.5023C14.9937 24.3738 12.9921 24.5477 12.9921 23.3772ZM22.9379 16.1836L23.286 18.4626C23.3423 18.8716 23.3514 19.1887 23.4141 19.5893C23.4538 19.8422 23.4799 19.9363 23.3627 20.1105C23.289 20.2197 23.1031 20.3687 23.0003 20.4371C22.5808 20.1563 22.5233 20.0175 22.5762 19.6441L22.831 17.3904C22.8767 17.0298 22.9379 16.6303 22.9379 16.1836ZM22.8752 15.1828H23.1254C23.0921 15.3253 23.0766 15.3268 23.0626 15.4957H22.9379C22.93 15.4012 22.9035 15.2459 22.8752 15.1828ZM26.0027 15.8083C26.0027 13.9926 25.8697 14.182 27.8165 14.182C28.1159 14.182 28.2051 14.253 28.3797 14.3698C28.1952 14.6457 26.4234 15.5267 26.0027 15.8083ZM17.6209 14.3698C18.0627 14.0739 18.6599 14.182 19.4351 14.182C20.1611 14.182 19.9978 15.0822 19.9978 15.8083C19.8123 15.6839 19.621 15.5853 19.4082 15.4598C19.0529 15.2493 17.7921 14.6253 17.6209 14.3698ZM22.2497 11.1168C23.1787 11.0963 23.2596 10.1787 24.3764 10.1787H25.0019C25.0019 11.4535 25.189 12.7488 24.4565 13.5111C23.1658 14.8543 20.9986 14.055 20.9986 11.9301V11.1795H21.4991V12.1803H22.4999V11.1795C22.4651 11.1795 22.3978 11.1806 22.3793 11.1753C22.2686 11.1436 22.3094 11.1549 22.2497 11.1168ZM29.6307 9.55317C29.6307 8.99342 29.7842 8.51266 30.3726 8.29345C31.1062 8.01981 31.7605 8.36148 32.0092 8.98851C32.1513 9.34794 32.2046 10.4376 32.3202 10.6791C30.9932 10.6791 30.2611 10.9146 29.8817 10.303C29.7721 10.1265 29.6307 9.8355 29.6307 9.55317ZM21.6242 10.1787H20.9986C20.9986 7.98542 21.23 8.17704 23.8133 8.17704C24.6066 8.17704 24.8541 8.54441 25.0019 9.17786C22.8744 9.17786 23.303 9.36759 22.5029 9.9315C22.2886 10.0823 21.9908 10.1787 21.6242 10.1787ZM19.9978 9.05276V12.4305C19.9978 12.8115 20.1146 13.0027 20.1857 13.3062C19.9615 13.2541 19.8916 13.1811 19.6225 13.1811H17.8711C16.9436 13.1811 15.9416 14.6631 16.8079 15.1828C16.9697 15.2795 17.1484 15.3752 17.3295 15.4742C17.8254 15.7448 20.1373 17.1844 20.4982 17.1844C21.2167 17.1844 20.9986 16.1156 20.9986 15.1828H21.6869C21.9258 16.0774 22.0497 15.3699 21.8475 16.8446C21.7277 17.7185 21.4991 19.4174 21.4991 20.2496C21.4991 20.5146 22.6756 21.6881 23.0003 21.6881C23.3431 21.6881 23.6277 21.2795 23.8291 21.0785C24.6689 20.2383 24.5699 20.301 24.4123 19.1505C24.3031 18.3542 24.0638 16.5615 24.0638 15.8083C24.0638 15.6658 24.263 15.4009 24.3137 15.1828H25.0019C25.0019 16.1156 24.7838 17.1844 25.5023 17.1844C25.886 17.1844 27.8536 15.9451 28.3139 15.6802C29.9883 14.716 29.2977 15.4016 30.6894 15.1782C30.8761 15.148 31.0083 15.0369 31.0779 14.8736C31.2355 14.5047 30.7075 12.274 30.6943 11.6799H32.4453C32.606 12.3678 32.6751 13.0579 32.7689 13.7337C32.9469 15.0157 33.3433 16.4346 31.7964 17.0359C31.0779 17.3148 28.1609 17.1852 27.191 17.1844C26.0058 17.1837 26.0058 17.1398 25.9419 18.3122C25.8584 19.8558 25.5023 20.7466 25.5023 22.6889H20.4982C20.4982 21.622 20.3743 20.6037 20.2378 19.6343L20.05 18.2586C19.8916 16.7558 19.7813 17.1341 17.4217 17.4233C14.558 17.774 15.0867 17.2086 14.6698 20.6136C14.629 20.942 14.5557 21.3015 14.5557 21.6881H12.9921C12.9921 20.7587 12.8436 18.2363 13.1988 17.4539C13.6384 16.4871 14.3811 15.9685 15.5569 15.8706C15.5569 15.4311 15.4613 15.2289 15.4314 14.8702C13.649 14.8702 11.9913 16.4175 11.9913 18.1852V25.6914H9.98964C9.6869 25.6914 9.48885 25.889 9.48885 26.1918V32.1967C9.48885 32.4994 9.6869 32.6971 9.98964 32.6971H17.9962C18.2986 32.6971 18.4966 32.4994 18.4966 32.1967V26.1918C18.4966 25.889 18.2986 25.6914 17.9962 25.6914H15.9946V23.3148C15.9946 22.8877 15.5569 22.2066 15.5569 22.1261C15.5569 21.2104 15.7897 20.0281 15.9027 19.0942C16.0021 18.2759 15.9794 18.8081 16.495 18.5605V24.6906H17.4958V18.4354C17.7634 18.4354 18.8507 18.3179 18.997 18.248C18.997 18.8478 19.3591 20.7451 19.4313 21.6288C19.4483 21.8287 19.4271 22.0517 19.4328 22.2531C19.4566 23.0858 19.5628 22.8994 19.3988 24.0291C19.2257 25.2212 19.2593 26.4594 19.0862 27.6571L18.5287 34.1057C18.4773 34.447 18.5317 34.3915 18.2887 34.5536C17.6292 34.9939 16.9954 35.2218 16.9954 36.1376C16.9954 36.4551 17.1269 36.6667 17.2902 36.8432C17.4209 36.985 17.7543 37.2012 17.9962 37.2012H21.4991C22.2349 37.2012 22.0014 35.8953 21.9991 35.387C21.9961 34.5653 22.1495 34.0592 22.2678 33.3408C22.3906 32.5905 22.9379 30.0715 22.9379 29.3821H23.0626C23.0626 30.4831 24.0068 33.8831 24.0015 35.387C23.9992 35.9037 23.7736 37.2012 24.5015 37.2012H28.0044C28.4549 37.2012 29.0052 36.6501 29.0052 36.2C29.0052 35.2328 28.478 35.0412 27.7508 34.5774C27.5395 34.4425 27.5474 34.5033 27.4889 34.2135L27.3214 32.4424C27.29 32.0459 27.2885 31.6751 27.2364 31.2756L27.0073 28.8775C26.9752 28.4489 26.9756 28.0793 26.9144 27.6571L26.4986 22.8764C26.5016 22.5774 26.5432 22.5449 26.5625 22.3106C26.5791 22.1095 26.5549 21.8892 26.5655 21.6881C26.626 20.5365 27.0036 19.3028 27.0036 18.1852H28.8177C28.9092 18.5783 28.9368 19.2405 28.9871 19.6419C29.1764 21.1336 29.2769 22.6307 29.6182 24.0775C29.9289 25.3947 30.6138 27.9784 31.2574 29.1946H28.0044V30.1951H32.0077C32.3558 30.1951 32.5084 29.9547 32.5084 29.6319C32.5084 29.4293 31.686 27.4938 31.5454 27.0917C30.9063 25.2635 30.4694 23.376 30.212 21.4197C30.1394 20.8676 30.1205 20.4004 30.0419 19.838C29.9626 19.2677 29.8813 18.7212 29.8813 18.1852C31.1421 18.1852 32.2008 18.3028 33.1513 17.3896C34.4587 16.1348 33.9352 14.3853 33.6782 12.8243C33.4994 11.7377 33.2594 9.05049 32.7802 8.21786C31.703 6.34586 28.5675 7.12709 28.5675 9.42769C28.5675 10.7808 29.342 11.065 29.577 11.4837C29.6591 11.6296 29.9792 13.8569 30.006 14.182H29.4432C28.7516 12.8754 28.0172 13.1811 26.378 13.1811C26.1089 13.1811 26.039 13.2541 25.8149 13.3062C25.8962 12.9578 26.0027 12.7601 26.0027 12.3054V8.9904C26.0027 8.05383 25.0563 7.17622 24.1262 7.17622H21.8744C20.9091 7.17622 19.9978 8.08747 19.9978 9.05276Z" fill="#1F52DE"></path> </svg> 