<?xml version="1.0" encoding="UTF-8"?> <svg xmlns="http://www.w3.org/2000/svg" width="47" height="45" viewBox="0 0 47 45" fill="none"> <g clip-path="url(#clip0_233_442)"> <rect width="46.7308" height="45" rx="10" fill="white"></rect> <rect width="46.7308" height="45" rx="10" fill="white"></rect> <path d="M13.8802 22.298H38.2003V37.9781H7.80005V22.298H11.9602V23.8982H9.4003V36.3778H36.6V23.8982H13.8802V22.298Z" fill="#1F52DE"></path> <path d="M10.2002 27.4904V24.7703H12.9203V26.3705H11.8004V27.4904H10.2002Z" fill="#1F52DE"></path> <path d="M11.8004 33.2504V34.3702H12.9203V35.9705H10.2002V33.2504H11.8004Z" fill="#1F52DE"></path> <path d="M23.0003 24.6104C24.5423 24.6104 25.9419 25.2374 26.9567 26.251L26.9597 26.2541C27.9734 27.2689 28.6004 28.6684 28.6004 30.2105C28.6004 31.7525 27.9734 33.1521 26.9597 34.1669L26.9567 34.1699C25.9419 35.1836 24.5423 35.8106 23.0003 35.8106C21.4582 35.8106 20.0587 35.1836 19.0439 34.1699L19.0408 34.1669C18.0272 33.1521 17.4001 31.7525 17.4001 30.2105C17.4001 28.6684 18.0272 27.2689 19.0408 26.2541L19.0439 26.251C20.0587 25.2374 21.4582 24.6104 23.0003 24.6104ZM25.8289 27.3789C25.1077 26.6573 24.1073 26.2106 23.0003 26.2106C21.8932 26.2106 20.8928 26.6573 20.1717 27.3789L20.1687 27.3819C19.4471 28.103 19.0004 29.1035 19.0004 30.2105C19.0004 31.3175 19.4471 32.3179 20.1687 33.0391L20.1717 33.0421C20.8928 33.7636 21.8932 34.2104 23.0003 34.2104C24.1073 34.2104 25.1077 33.7636 25.8289 33.0421L25.8319 33.0391C26.5534 32.3179 27.0001 31.3175 27.0001 30.2105C27.0001 29.1035 26.5534 28.103 25.8319 27.3819L25.8289 27.3789Z" fill="#1F52DE"></path> <path d="M34.2002 27.4181V26.2982H33.0803V24.698H35.8004V27.4181H34.2002Z" fill="#1F52DE"></path> <path d="M35.8004 33.1781V35.8982H33.0803V34.298H34.2002V33.1781H35.8004Z" fill="#1F52DE"></path> <path d="M7.80005 22.298L23.0002 8.02307L38.2003 22.298L37.111 23.4553L23.0002 10.2031L8.88931 23.4553L7.80005 22.298Z" fill="#1F52DE"></path> <path d="M28.2571 12.3627V8.69885H33.9918V16.1861H32.3983V10.2923H29.8502V12.3627H28.2571Z" fill="#1F52DE"></path> <path d="M20.4309 32.2325V31.1145H24.6681V32.2325H20.4309ZM20.4309 30.6455V29.5279H23.4058V30.6455H20.4309ZM21.242 33.1702V26.8591H23.6314C24.2324 26.8591 24.7059 27.0303 25.0514 27.3731C25.3972 27.7156 25.5696 28.1873 25.5696 28.7886C25.5696 29.3536 25.3972 29.8041 25.0514 30.1409C24.7059 30.4777 24.2324 30.6455 23.6314 30.6455H22.6756V33.1702H21.242ZM22.6756 29.4738H23.6314C23.8298 29.4738 23.9844 29.4062 24.0955 29.2708C24.207 29.1359 24.2626 28.9658 24.2626 28.7614C24.2626 28.527 24.207 28.3468 24.0955 28.2205C23.9844 28.0943 23.8298 28.0312 23.6314 28.0312H22.6756V29.4738Z" fill="#1F52DE"></path> </g> <defs> <clipPath id="clip0_233_442"> <rect width="46.7308" height="45" fill="white"></rect> </clipPath> </defs> </svg> 