<?xml version="1.0" encoding="UTF-8"?> <svg xmlns="http://www.w3.org/2000/svg" width="47" height="45" viewBox="0 0 47 45" fill="none"> <rect width="46.7308" height="45" rx="10" fill="white"></rect> <path d="M13.8802 14.0882H38.2003V29.7683H7.80005V14.0882H11.9602V15.6884H9.4003V28.1681H36.6V15.6884H13.8802V14.0882Z" fill="#1F52DE"></path> <path d="M10.2002 19.2805V16.5604H12.9203V18.1606H11.8004V19.2805H10.2002Z" fill="#1F52DE"></path> <path d="M11.8004 25.0405V26.1604H12.9203V27.7607H10.2002V25.0405H11.8004Z" fill="#1F52DE"></path> <path d="M20.7143 14.1978L32.2426 7.54205L36.2538 14.4884L34.8728 15.2882L31.6587 9.72171L21.514 15.5788L20.7143 14.1978ZM25.2864 29.6587L13.7584 36.3141L9.74609 29.365L11.1271 28.5713L14.3397 34.1359L24.4866 28.2777L25.2864 29.6587Z" fill="#1F52DE"></path> <path d="M23.0003 16.4005C24.5423 16.4005 25.9419 17.0275 26.9567 18.0412L26.9597 18.0442C27.9734 19.059 28.6004 20.4586 28.6004 22.0006C28.6004 23.5427 27.9734 24.9422 26.9597 25.957L26.9567 25.9601C25.9419 26.9737 24.5423 27.6008 23.0003 27.6008C21.4582 27.6008 20.0587 26.9737 19.0439 25.9601L19.0408 25.957C18.0272 24.9422 17.4001 23.5427 17.4001 22.0006C17.4001 20.4586 18.0272 19.059 19.0408 18.0442L19.0439 18.0412C20.0587 17.0275 21.4582 16.4005 23.0003 16.4005ZM25.8289 19.169C25.1077 18.4475 24.1073 18.0008 23.0003 18.0008C21.8932 18.0008 20.8928 18.4475 20.1717 19.169L20.1687 19.172C19.4471 19.8932 19.0004 20.8936 19.0004 22.0006C19.0004 23.1077 19.4471 24.1081 20.1687 24.8292L20.1717 24.8323C20.8928 25.5538 21.8932 26.0005 23.0003 26.0005C24.1073 26.0005 25.1077 25.5538 25.8289 24.8323L25.8319 24.8292C26.5534 24.1081 27.0001 23.1077 27.0001 22.0006C27.0001 20.8936 26.5534 19.8932 25.8319 19.172L25.8289 19.169Z" fill="#1F52DE"></path> <path d="M34.2002 19.2083V18.0884H33.0803V16.4882H35.8004V19.2083H34.2002Z" fill="#1F52DE"></path> <path d="M35.8004 24.9683V27.6884H33.0803V26.0882H34.2002V24.9683H35.8004Z" fill="#1F52DE"></path> <path d="M20.4309 24.2184V23.1005H24.6681V24.2184H20.4309ZM20.4309 22.6314V21.5138H23.4058V22.6314H20.4309ZM21.242 25.1561V18.8451H23.6314C24.2324 18.8451 24.7059 19.0163 25.0514 19.3591C25.3972 19.7015 25.5696 20.1732 25.5696 20.7745C25.5696 21.3396 25.3972 21.7901 25.0514 22.1269C24.7059 22.4636 24.2324 22.6314 23.6314 22.6314H22.6756V25.1561H21.242ZM22.6756 21.4598H23.6314C23.8298 21.4598 23.9844 21.3921 24.0955 21.2568C24.207 21.1219 24.2626 20.9518 24.2626 20.7473C24.2626 20.513 24.207 20.3327 24.0955 20.2065C23.9844 20.0802 23.8298 20.0171 23.6314 20.0171H22.6756V21.4598Z" fill="#1F52DE"></path> </svg> 