<?xml version="1.0" encoding="UTF-8"?> <svg xmlns="http://www.w3.org/2000/svg" width="47" height="45" viewBox="0 0 47 45" fill="none"> <rect width="46.7308" height="45" rx="10" fill="white"></rect> <rect width="46.7308" height="45" rx="10" fill="white"></rect> <path fill-rule="evenodd" clip-rule="evenodd" d="M12.7037 35.2584H21.5293V37.2196H12.7037V35.2584ZM30.009 26.3323H33.3093V25.3515H30.009V21.1498H29.0283V25.3515V26.3323H30.009ZM25.7582 20.1203C25.929 20.375 26.2163 20.6245 26.3712 20.8558C27.4057 20.1626 28.3355 19.5685 29.8647 19.5685C31.3648 19.5685 32.6589 20.2114 33.6586 21.1683C33.6676 21.1767 33.6809 21.1895 33.6895 21.1982L33.956 21.4835C35.4243 23.0721 35.6685 25.8247 34.4746 27.7326C34.3075 27.9991 34.1386 28.2051 33.9711 28.4556C34.2062 28.6129 34.4712 28.9111 34.7066 29.0687C35.4183 28.5917 36.2388 26.4827 36.2388 25.33C36.2388 24.0869 36.1814 23.3325 35.6269 22.2028C34.9466 20.8157 33.9964 19.8912 32.623 19.2003C30.9925 18.3802 29.0449 18.3991 27.3596 19.0858C26.9287 19.2616 25.9903 19.7737 25.7582 20.1203ZM23.4909 24.5941C23.4909 25.8368 23.5483 26.5912 24.1024 27.7209C24.4308 28.3906 24.8364 28.9738 25.344 29.4829C25.5072 29.6466 25.5677 29.6783 25.7393 29.8227C27.6317 31.4135 30.0638 31.7782 32.3701 30.8379C32.801 30.6621 33.7394 30.15 33.9711 29.8038C33.8007 29.5487 33.513 29.2996 33.3581 29.0687C32.2836 29.7879 31.3168 30.3552 29.8647 30.3552C29.1137 30.3552 28.1832 30.0997 27.6589 29.8643C26.9877 29.5634 26.5765 29.2429 26.0802 28.7467C24.5586 27.225 24.0457 25.0257 24.8734 22.9738C25.1501 22.2867 25.3957 22.0097 25.7582 21.4684C25.5273 21.3138 25.2774 21.0262 25.0227 20.8558C24.311 21.332 23.4909 23.4413 23.4909 24.5941ZM22.5097 24.9618C22.5097 24.4618 22.6083 23.7626 22.718 23.331C23.009 22.1828 23.4629 21.1279 24.2419 20.2582C24.8606 19.5673 24.8908 19.5201 25.6785 18.9369C26.4196 18.3885 27.3105 18.0491 28.2338 17.8148C29.2992 17.5449 30.4301 17.5449 31.4955 17.8148C33.4711 18.3159 34.7187 19.1943 35.89 20.7756C36.1134 21.0776 36.4097 21.5845 36.5548 21.9492C37.1607 23.4727 37.4328 24.9312 37.0117 26.5927C36.5548 28.3948 35.8737 29.4156 34.5683 30.585C32.9631 32.0228 30.3439 32.6437 28.2338 32.1089C27.3089 31.8746 26.423 31.5382 25.6785 30.9868C24.8904 30.4036 24.8609 30.3567 24.2419 29.6655C23.1942 28.4953 22.5097 26.5685 22.5097 24.9618ZM11.0487 18.5877C12.1368 18.5877 14.1316 18.4036 14.8237 18.8583C15.8721 19.5473 15.6457 20.6759 15.6457 22.0815C15.6457 22.8657 15.2984 23.5018 14.6672 23.7996C14.1736 24.0321 13.6437 24.0279 13.1516 23.7785L11.9489 22.8967C11.3321 22.3045 12.1648 20.722 11.4387 19.2396L11.0487 18.5877ZM12.7037 9.45558C12.7037 9.12449 13.079 8.78169 13.4392 8.78169C13.6592 8.78169 16.5581 9.79498 17.1859 9.9987C17.684 10.1605 17.8556 10.312 18.122 10.7179C18.5714 11.4032 19.0019 12.0393 19.4453 12.7041C19.6675 13.0371 19.8773 13.3542 20.1074 13.6966C20.3705 14.0878 20.5485 14.3308 20.5485 14.9714V21.5297H21.5293V14.6041C21.5293 13.7563 20.6785 12.715 20.1566 11.9319C19.8708 11.5037 19.6331 11.1465 19.3474 10.7183C19.1161 10.371 18.5873 9.71108 18.5873 9.33312C18.5873 8.98427 18.9127 8.68947 19.2525 8.84481C19.5106 8.96311 20.7628 10.8064 21.0126 11.1367L22.7202 13.4747C22.8967 13.748 23.0003 14.1172 23.0003 14.5428V20.0587C23.0003 20.4022 21.5293 22.1283 21.5293 24.5329C21.5293 25.872 21.5429 26.451 21.9961 27.7436C22.3457 28.741 22.4171 28.1404 21.7825 29.6893C21.6121 30.105 21.4601 30.5038 21.2825 30.9052C20.6808 32.2662 20.5485 32.7114 20.5485 34.278H13.6841C13.6558 32.9884 12.9188 31.6206 12.1379 30.6757C11.9164 30.4081 11.7947 30.2169 11.6118 29.9153C11.272 29.3571 10.2368 26.9268 9.7829 25.9827C8.54888 23.4164 8.78132 24.1746 8.78132 21.1619C8.78132 20.304 8.78132 19.4456 8.78132 18.5877C11.0354 18.7755 10.7501 20.8134 10.7421 22.2655C10.7384 22.8721 10.7614 23.0131 11.0215 23.396C11.1946 23.6511 11.543 23.8616 11.7842 24.0427C12.6723 24.7079 12.9203 24.9618 14.1131 24.9618C15.3717 24.9618 16.6261 23.7074 16.6261 22.4488C16.6261 20.8505 16.8744 19.4555 15.9076 18.4482C14.81 17.3045 13.5477 17.6073 11.9682 17.6073C11.1507 17.6073 10.334 17.6073 9.51644 17.6073C9.58901 16.735 10.1703 16.1363 11.1099 16.1363H15.7682C16.515 16.1363 16.755 16.7584 17.19 17.4111C18.37 19.1814 18.0971 18.4845 18.0971 21.5297H19.0779V15.5845C19.0779 14.7911 18.424 13.991 18.0725 13.4641C16.6802 11.3752 16.8589 11.7751 14.5432 10.7421L12.9626 9.99341C12.8519 9.89779 12.7037 9.62453 12.7037 9.45558ZM11.7229 9.33312C11.7229 9.81237 11.7418 10.1057 12.071 10.5172C12.4259 10.9617 12.8704 11.0883 13.3984 11.3351C13.8141 11.5294 14.1672 11.684 14.5863 11.8628C14.9484 12.0173 16.0203 12.4588 16.275 12.6871C16.5105 12.8984 17.1337 13.8943 17.337 14.1993C18.071 15.2999 18.0971 15.1011 18.0971 16.8714C17.7055 16.5849 17.3095 15.1555 15.9518 15.1555H10.8037C9.69181 15.1555 8.53566 16.2138 8.53566 17.6073C8.22536 17.7717 7.80054 18.0049 7.80054 18.4652V23.7361C7.80054 24.2815 8.09118 24.7381 8.27336 25.1637L9.47525 27.7613C9.77496 28.3547 10.4307 29.9115 10.7153 30.3821C10.9905 30.8367 11.2002 31.1406 11.5253 31.5337C12.0854 32.2106 12.6425 33.3645 12.6425 34.278H11.7229V38.2004H22.5097V34.278H21.5293C21.5293 31.8848 22.8072 30.4667 22.8778 29.6197C23.0543 29.7384 23.6674 30.6773 24.7857 31.5734C25.9483 32.505 27.7761 33.2972 29.5581 33.2972C31.6478 33.2972 33.0576 32.9041 34.6703 31.7903C35.3839 31.2975 36.1723 30.5053 36.6678 29.8034C37.519 28.5978 38.2 26.931 38.2 25.3912C38.2 23.354 38.0024 22.4662 37.0764 20.7537C35.8393 18.4671 32.9185 16.6265 30.2936 16.6265C28.2572 16.6265 27.369 16.8241 25.6565 17.7505C24.8197 18.2029 24.3137 18.794 23.9811 19.017C23.9811 17.6889 23.9811 16.3608 23.9811 15.033C23.9811 14.2647 24.0174 13.8459 23.7728 13.2797L20.417 8.60632C19.937 7.96531 19.7748 7.8009 18.9554 7.8009C18.2335 7.8009 17.7486 8.41886 17.6069 9.0266C17.3438 9.00468 16.8567 8.80739 16.6182 8.72802C15.6298 8.39845 14.2662 7.8009 13.2552 7.8009C12.4947 7.8009 11.7229 8.58364 11.7229 9.33312Z" fill="#1F52DE"></path> </svg> 