<?xml version="1.0" encoding="UTF-8"?> <svg xmlns="http://www.w3.org/2000/svg" width="47" height="45" viewBox="0 0 47 45" fill="none"> <rect width="46.7308" height="45" rx="10" fill="white"></rect> <rect width="46.7308" height="45" rx="10" fill="white"></rect> <path fill-rule="evenodd" clip-rule="evenodd" d="M37.1866 21.3672V36.1871H10.397C10.519 36.0204 10.5867 36.0299 10.7768 35.9339C10.9431 35.85 11.0028 35.7948 11.1778 35.7018C11.4979 35.531 11.7383 35.3964 12.0441 35.2381C12.2077 35.1534 12.2716 35.0975 12.4443 35.0049C12.6174 34.9127 12.6964 34.8779 12.8544 34.7815L16.6063 32.7066C16.7609 32.6177 16.8981 32.5607 17.0591 32.4628L20.4033 30.6135C21.9823 29.7978 23.8974 28.6247 25.4278 27.8487C26.8455 27.1299 28.9775 25.8751 30.4526 25.0832C30.7301 24.934 30.9867 24.7877 31.2603 24.624L33.7877 23.2245C34.951 22.6001 36.038 21.9753 37.1866 21.3672ZM25.0268 20.4809H26.0404V19.4672H25.0268V20.4809ZM30.0936 15.9209H31.1069V14.9072H30.0936V15.9209ZM23.0002 13.3875H24.0138V12.3738H23.0002V13.3875ZM27.5602 10.3472H28.5735V9.33395H27.5602V10.3472ZM31.74 13.5141C31.7456 13.7711 31.966 14.4012 32.0571 14.5909C32.3383 14.4556 32.7147 14.414 33.0069 14.2738C32.974 13.8815 32.7627 13.6797 32.7536 13.2609C32.4528 13.2673 32.0491 13.4423 31.74 13.5141ZM29.3335 27.1941C29.4322 27.3804 29.7376 27.9122 29.7769 28.0804C30.0494 28.0581 30.1121 27.975 30.3105 27.8544C30.5025 27.7372 30.6703 27.6707 30.8537 27.574C30.7641 27.19 30.5052 27.0316 30.4099 26.6242C30.0426 26.8188 29.699 27.0006 29.3335 27.1941ZM16.6668 34.224C16.7424 34.5491 17.0198 34.786 17.1102 35.1738C17.5025 35.0824 17.7549 34.7679 18.1869 34.6674C18.0966 34.2792 17.8192 34.0422 17.7436 33.7172C17.3116 33.8177 17.0591 34.1326 16.6668 34.224ZM20.2135 32.1971C20.2895 32.5225 20.5665 32.7595 20.6565 33.1472C21.0488 33.0558 21.3017 32.7413 21.7337 32.6404C21.6501 32.2821 21.3678 31.9809 21.2899 31.6906C20.8583 31.7912 20.6058 32.106 20.2135 32.1971ZM34.4 25.0409C34.4896 25.4245 34.7485 25.5829 34.8433 25.9907C35.2629 25.8932 35.6132 25.5557 35.9205 25.4839C35.8252 25.0768 35.5663 24.9177 35.4768 24.5341C35.0845 24.6252 34.8324 24.94 34.4 25.0409ZM31.297 18.2638C31.4504 18.5549 31.6802 18.8092 31.8666 19.0874C32.6675 18.9007 32.7105 18.0382 32.9513 17.3216C33.0299 17.0888 33.1369 16.8106 33.1966 16.554C32.9747 16.5026 32.3651 16.3242 32.1837 16.2373L31.6799 17.8874C31.5873 18.1497 31.5158 18.1172 31.297 18.2638ZM25.7868 29.1572C25.8624 29.3004 25.9097 29.4191 26.0038 29.5737C26.1183 29.7619 26.1761 29.8122 26.2302 30.0439C26.5544 30.017 27.6203 29.3469 27.943 29.1602L29.0168 28.5872C28.9272 28.2032 28.6683 28.0445 28.5735 27.6375C28.0991 27.8884 27.632 28.1318 27.1773 28.3945C27.0628 28.4606 26.9725 28.4954 26.8436 28.5672L25.7868 29.1572ZM32.3099 11.2974C33.4385 12.0529 33.4604 11.9898 33.83 13.5772C34.056 13.4688 34.5708 13.324 34.8433 13.2609L34.2741 11.4864C34.1849 11.3337 33.1501 10.5835 32.9434 10.4742C32.7725 10.5884 32.3602 11.1107 32.3099 11.2974ZM31.8666 29.1572C32.0038 29.4157 32.2438 29.7585 32.3099 30.0439C32.525 29.994 32.8474 29.8179 33.0435 29.7003L34.4366 28.9406C34.6785 28.7959 34.8747 28.6538 35.16 28.5872C35.0765 28.2289 34.7942 27.9277 34.7167 27.6375C34.4442 27.7009 32.0476 29.0363 31.8666 29.1572ZM30.2833 21.4938H28.5735V22.5075H30.6C31.0135 22.5075 31.5302 21.7909 31.9304 21.6843C31.8488 21.3797 31.4414 21.1015 31.3601 20.7973C30.9818 20.9976 30.4417 21.4938 30.2833 21.4938ZM29.5236 19.4672H27.2435V20.4809H29.9035C30.303 20.4809 30.5766 20.0013 30.9168 19.9106C30.8355 19.6063 30.4281 19.3285 30.3468 19.0243C30.1461 19.1301 30.1359 19.1543 29.9677 19.2786C29.8389 19.3743 29.744 19.4672 29.5236 19.4672ZM22.7469 34.224C22.8229 34.3673 22.8698 34.4856 22.9639 34.6402C23.078 34.8288 23.1359 34.879 23.1899 35.1107C23.439 35.0903 25.1462 34.0838 25.554 33.865C25.7475 33.761 25.8726 33.7123 26.0525 33.6031L26.9902 33.0841C26.85 32.8192 26.6206 32.513 26.5465 32.1971C26.2785 32.2198 25.032 32.9893 24.6261 33.19L22.7469 34.224ZM28.8271 34.7305C28.9635 34.989 29.2039 35.3322 29.2704 35.6175C29.5115 35.5609 30.4602 35.0378 30.6998 34.8938L33.4869 33.374C33.7423 33.2206 34.6729 32.6948 34.9068 32.6404C34.8233 32.2821 34.541 31.9809 34.4635 31.6906C34.194 31.7534 29.1328 34.5256 28.8271 34.7305ZM34.3403 15.0444C34.403 15.8279 34.7061 15.1034 34.2651 16.4187L33.3791 19.2065C33.2846 19.3977 33.0601 19.4895 32.8617 19.6388C32.6584 19.7919 32.5102 19.9034 32.3099 20.0372C32.4641 20.3282 32.6939 20.5822 32.8802 20.8604C33.1531 20.7969 33.7832 20.2632 34.0496 20.0671C34.3255 19.8645 34.3081 19.818 34.4007 19.468L35.6034 15.6673C35.6034 15.5887 35.329 14.8052 35.287 14.7175L34.3403 15.0444ZM15.4003 32.134V31.3739C15.7303 31.1528 16.0349 30.9132 16.3501 30.6773C17.7141 29.6572 17.4269 29.0374 17.4269 26.8139C17.7508 26.7277 18.4852 26.0538 18.6934 26.0538H20.0238C20.0238 26.8351 20.4036 28.8889 20.4036 29.4104C19.949 29.7151 18.5762 30.3935 17.9212 30.7918C17.6854 30.9347 15.6618 32.0731 15.4003 32.134ZM17.8702 19.5307C16.6491 19.5307 16.0387 18.2366 17.0297 17.2967C18.7172 15.6957 19.6436 17.1799 19.6436 17.7574C19.6436 18.3942 19.4134 18.6346 19.0381 18.9249C18.7195 19.1713 18.391 19.5307 17.8702 19.5307ZM22.177 17.7574C22.3769 17.7037 22.4714 17.5688 22.629 17.4494C22.7726 17.3405 22.9242 17.2173 23.0633 17.1243C23.2549 17.4104 23.5055 17.661 23.6967 17.9475C23.5482 18.1694 23.1071 18.4876 22.8736 18.6441C22.7386 18.545 22.2923 17.9297 22.177 17.7574ZM19.4538 15.4141V15.7943C19.3231 15.7248 19.3034 15.7062 19.1367 15.6673C19.2346 15.5339 19.3163 15.5059 19.4538 15.4141ZM14.7672 17.9475C14.7672 18.3213 16.6313 20.5312 17.0077 21.0267C17.4227 21.5728 17.8082 21.2262 18.1148 20.9787L19.5022 19.8962C19.6988 19.7333 21.1955 18.5129 21.4169 18.4543C21.4676 18.6437 21.8535 19.047 22.0504 19.3406C21.5855 19.5867 19.0086 21.7535 18.1741 22.3045L14.1338 25.104C13.8775 24.0057 13.1201 21.2894 13.1201 20.3543C13.1201 18.8304 13.7354 17.4225 14.751 16.4115C15.1747 15.9897 16.801 14.716 17.4446 14.2284C17.5928 14.1162 17.6922 14.0051 17.8702 13.9575C17.9897 14.1355 18.0596 14.2247 18.1949 14.3925C18.3117 14.5365 18.4553 14.6635 18.5033 14.8441C18.3298 14.8902 18.1665 15.0584 18.0169 15.1805C17.8294 15.3332 17.71 15.4163 17.5168 15.5675L15.5991 17.0695C15.3553 17.2513 14.7672 17.6535 14.7672 17.9475ZM18.6934 13.1974C18.8967 13.143 19.2392 12.8134 19.517 12.6274C19.6889 12.7537 20.0771 13.31 20.2135 13.5141C19.9641 13.5806 19.56 13.9915 19.3269 14.1472C18.9852 13.6373 18.7395 13.5576 18.6934 13.1974ZM26.167 7.81421H30.9803C31.1001 7.81421 34.6687 10.5011 34.8637 10.6439C35.2387 10.9191 35.174 11.1224 35.3895 11.7646C35.541 12.2158 35.6521 12.6199 35.8014 13.0628L36.6027 15.6673C36.6027 15.93 35.4069 19.406 35.2239 20.1014C35.1385 20.4265 35.1449 20.4813 34.9004 20.6642C34.8154 20.7281 31.111 23.5204 30.9803 23.5204H26.167C26.0431 23.5204 25.4527 23.0325 25.3076 22.9236C25.0082 22.6995 24.7539 22.526 24.4655 22.3083C24.1386 22.0615 23.061 21.1869 22.7469 21.114C22.5606 21.3922 22.3308 21.6461 22.177 21.9375C22.4355 22.074 22.6453 22.2569 22.8826 22.4349L25.6595 24.4717C25.9437 24.6055 28.7621 24.5341 29.2065 24.5341L25.0268 26.877C25.0268 26.4397 24.9999 26.0538 24.5834 26.0538C24.3298 26.0538 23.5304 26.1721 23.3804 26.2439C23.3804 25.7314 23.2598 25.0625 23.2016 24.5855C23.0826 23.6017 22.7356 22.7932 21.5931 22.5211C21.0764 22.3983 20.3836 22.444 19.7702 22.444C19.8685 22.3098 20.2358 22.0472 20.3946 21.9285C21.6845 20.9673 23.0913 19.7647 24.3752 18.8157C25.4058 18.0541 25.0404 17.9501 23.7519 16.3091C23.1309 15.5173 22.9934 15.8121 21.5983 16.9259C21.4377 17.0544 21.2446 17.2585 21.0367 17.314C20.7423 16.0498 20.3311 16.1556 20.7117 15.0255C20.7793 14.8249 20.8912 14.4125 20.9664 14.267C21.0779 14.0497 21.3005 14.0058 21.4143 13.7579C21.6021 13.3478 21.2684 13.4124 21.3429 13.0602C21.3655 12.9529 21.4381 12.7786 21.4664 12.6773L21.8372 11.5276C22.1297 10.6311 21.948 10.8998 22.6475 10.3748L24.9822 8.65591C25.1946 8.49603 25.3446 8.38303 25.5604 8.22088C25.681 8.13055 26.0533 7.81421 26.167 7.81421ZM20.5303 12.1206C20.1137 11.8417 20.1648 11.3609 19.5801 11.3609C19.2819 11.3609 18.6605 11.9464 18.4043 12.1482L15.0292 14.7897C13.4773 15.9455 12.1072 17.8175 12.1072 19.9106C12.1072 22.136 12.3502 21.9141 12.7354 23.7793C12.8431 24.3028 12.9859 24.8209 13.1073 25.307C13.3926 26.448 13.4678 26.8797 14.5038 26.1075L17.0565 24.3534C18.9069 22.9792 18.4186 23.5257 20.4668 23.5204C22.1891 23.5166 22.0428 23.6916 22.3089 25.9854C22.5387 27.9636 22.6468 27.2243 24.0138 27.1941C24.004 27.6223 23.6007 27.6257 22.8131 28.0834C22.5927 28.2116 22.3565 28.3329 22.1256 28.4727C21.9672 28.5691 21.5764 28.7981 21.4169 28.8405C21.2605 28.17 21.149 26.6053 21.0212 25.6899C20.9751 25.3626 20.8749 25.0409 20.4668 25.0409C17.9469 25.0409 18.5997 24.8092 17.0724 25.8263C16.29 26.3464 16.4136 26.2152 16.4136 27.3838C16.414 30.1365 16.3588 29.1546 14.5926 30.6928C14.4203 30.8425 14.3881 30.9389 14.3829 31.2431C14.3745 31.745 14.387 32.2632 14.387 32.767C14.1995 32.8173 14.2842 32.7931 14.1338 32.8936L13.3673 31.1819C13.2335 30.8304 14.0393 29.9777 14.26 29.6637C15.3995 28.0411 14.734 28.808 14.7034 27.4473C14.3469 27.4772 14.0393 27.6295 13.6904 27.6375C13.6904 28.8477 14.2169 27.8472 13.1583 29.3851C12.0312 31.0228 11.8097 30.4623 12.9304 32.767C13.0124 32.9363 13.1375 33.2024 13.1836 33.4005C11.8491 34.1069 10.3199 35.0449 9.02499 35.7018C8.43954 35.9989 7.80005 36.2461 7.80005 36.694C7.80005 37.0001 8.00074 37.2008 8.30688 37.2008H37.6935C37.9996 37.2008 38.2003 37.0001 38.2003 36.694V20.4809C38.2003 19.2779 36.4387 20.6461 36.1102 20.7341L37.6935 15.6673C37.6935 15.3566 36.546 11.9029 36.3563 11.3046C36.2856 11.0827 36.1903 10.814 36.1185 10.5918C35.9001 9.91638 35.5304 9.8491 34.626 9.17106L32.446 7.55191C32.215 7.37843 31.5321 6.80054 31.2331 6.80054H25.9134C25.5321 6.80054 22.485 9.19638 22.0141 9.55128L21.2453 10.1122C21.0042 10.3624 20.7298 11.7045 20.5303 12.1206Z" fill="#1F52DE"></path> </svg> 