<?xml version="1.0" encoding="UTF-8"?> <svg xmlns="http://www.w3.org/2000/svg" width="47" height="45" viewBox="0 0 47 45" fill="none"> <rect width="46.7308" height="45" rx="10" fill="white"></rect> <rect width="46.7308" height="45" rx="10" fill="white"></rect> <path fill-rule="evenodd" clip-rule="evenodd" d="M23.0002 23.6633L31.4909 36.1913H14.5095C14.5726 35.9551 16.2503 33.5792 16.6003 33.0569L23.0002 23.6633ZM22.1978 6.80054H23.7863L23.9503 6.80092C26.59 6.80092 29.8869 8.12829 31.9493 9.66693C33.6112 10.9066 35.2039 12.5775 36.2002 14.3819C36.4164 14.7731 36.6348 15.1333 36.8094 15.5539C37.5876 17.4286 38.2003 19.16 38.2003 21.3476V21.442V21.4776C38.1999 21.8087 38.1784 21.9746 37.8322 22.286C37.6647 22.4368 37.4259 22.5351 37.1315 22.5351C36.0652 22.5351 35.1635 22.7237 34.7432 21.9542C34.5689 21.6356 34.629 19.8603 33.9676 18.0987C33.4147 16.6258 32.9366 15.8075 32.0174 14.6457C31.8828 14.4756 31.7861 14.3876 31.6602 14.2315C31.2086 13.6702 30.6356 13.1789 30.0577 12.7465C25.794 9.55619 20.1659 9.56073 15.9083 12.7711L15.3553 13.2276C15.24 13.3353 15.2125 13.3811 15.0783 13.485C14.263 14.1154 13.1485 15.7508 12.6688 16.6568C13.0075 16.6643 19.5166 18.5836 20.1754 18.7695C22.8857 19.5334 21.4234 18.9725 22.7035 18.9725H23.2972C24.6069 18.9725 26.0283 20.3985 26.0283 21.704V22.2977C26.0283 23.1413 25.348 24.0957 24.8408 24.4351L32.2509 35.3719C32.4146 35.6179 32.6191 35.8152 32.6191 36.1913C32.6191 36.7858 32.3103 37.2008 31.7282 37.2008H14.2721C13.7653 37.2008 13.3813 36.8168 13.3813 36.31C13.3813 35.8643 13.5166 35.695 13.7974 35.3008L17.2576 30.2109C18.2312 28.9146 19.6969 26.5043 20.7098 25.1131C20.8625 24.9033 21.1002 24.6312 21.1595 24.3757C20.7291 24.2608 20.2887 23.4342 20.1311 23.0291C20.0302 22.7694 20.1334 22.9047 19.9199 22.7653L18.6858 22.0997C17.2814 21.4099 15.2589 20.2402 13.7369 19.4483C13.3132 19.228 12.2436 18.5783 11.8971 18.4974C11.8067 18.8848 11.6858 19.2333 11.6041 19.6294C11.5229 20.0225 11.4571 20.4427 11.4205 20.871C11.3815 21.3249 11.3951 21.7663 11.1876 22.0634C11.0149 22.3113 10.7076 22.5351 10.2942 22.5351C9.48496 22.5351 8.56767 22.6689 8.13794 22.2569C7.83709 21.9685 7.80307 21.826 7.80005 21.5456V21.4179V21.3476C7.80005 19.2374 8.43274 17.3224 9.20792 15.5116C9.97895 13.7114 11.6729 11.6247 13.1254 10.4043C14.8485 8.95638 16.7587 7.89206 18.975 7.28772C20.3655 6.90863 21.1902 6.81868 22.1978 6.80054ZM20.9815 22.0007C20.9815 20.3256 23.0856 19.2684 24.382 20.5595C25.6424 21.8158 24.7138 23.404 24.1877 23.5442C24.1378 23.3575 23.6212 22.4757 23.0002 22.4757C22.3788 22.4757 21.8614 23.362 21.8126 23.5442C21.3334 23.4165 20.9815 22.4735 20.9815 22.0007ZM13.0252 17.8443C13.2739 17.85 14.6024 18.2589 14.946 18.3583L20.6845 19.982C20.3938 20.4159 20.0272 20.9212 19.972 21.5849L18.216 20.6695C17.919 20.4915 17.6574 20.3823 17.3709 20.208L13.0252 17.8443ZM32.3813 13.3913L33.3765 12.3674C33.7688 12.6414 34.5243 13.6955 34.7802 14.0799C36.1476 16.1345 37.1315 18.734 37.1315 21.4662H35.6469C35.6469 18.8243 34.3845 15.6745 32.692 13.793C32.5106 13.5916 32.5166 13.6468 32.3813 13.3913ZM10.8875 17.1912C10.8875 18.1932 11.1347 17.4221 10.8668 18.2979C10.7704 18.6127 10.7016 18.8569 10.6264 19.1864C10.4272 20.0614 10.3535 20.5255 10.3535 21.4662H8.80956C8.92862 20.956 8.9101 19.8633 9.21321 18.6633C9.77561 16.4349 10.4937 15.0414 11.8207 13.2552C11.9893 13.0284 12.3937 12.5265 12.6095 12.3818L13.6647 13.4049C13.3835 13.8501 12.7456 14.4042 11.959 15.769C11.6484 16.3076 11.8158 16.3268 11.4318 16.4886C11.1646 16.6009 10.8875 16.8314 10.8875 17.1912ZM23.5346 7.86939C25.8949 7.86939 29.0153 8.85282 30.8809 10.2014C31.1965 10.4296 31.4769 10.6077 31.774 10.8518C32.0586 11.0858 32.4248 11.3201 32.6191 11.61L31.6239 12.6339L30.0539 11.4437C28.2182 10.2176 25.7725 9.35399 23.5346 9.35399V7.86939ZM14.3908 12.6788L13.3677 11.6236C13.8586 10.907 16.2809 9.45188 17.1049 9.09925C18.7792 8.38227 20.5378 7.86939 22.4657 7.86939V9.35399C20.2555 9.35399 17.7772 10.2554 16.0058 11.4437C15.697 11.6508 15.4615 11.8058 15.1762 12.0393L14.3908 12.6788Z" fill="#1F52DE"></path> <path d="M20.0547 34.3767V33.095H24.9121V34.3767H20.0547ZM20.0547 32.5572V31.276H23.465V32.5572H20.0547ZM20.9848 35.4516V28.2164H23.7239C24.4125 28.2164 24.9552 28.413 25.3517 28.806C25.7478 29.1987 25.9455 29.7392 25.9455 30.4286C25.9455 31.076 25.7478 31.5927 25.3517 31.9786C24.9552 32.3645 24.4125 32.5572 23.7239 32.5572H22.6278V35.4516H20.9848ZM22.6278 31.214H23.7239C23.951 31.214 24.1283 31.1365 24.2556 30.9812C24.3834 30.8266 24.4473 30.6315 24.4473 30.3976C24.4473 30.1285 24.3834 29.9221 24.2556 29.7774C24.1283 29.6322 23.951 29.5601 23.7239 29.5601H22.6278V31.214Z" fill="#1F52DE"></path> </svg> 