<?xml version="1.0" encoding="UTF-8"?> <svg xmlns="http://www.w3.org/2000/svg" viewBox="0 0 6560 1847" width="6560" height="1847"> <title>logocorrect-svg</title> <style> .s0 { fill: #2b2a29 } .s1 { fill: #1f52de } </style> <g id="Layer_x0020_1"> <path id="Layer" fill-rule="evenodd" class="s0" d="m3185.5 1516.2c86.6 6.1 156.5 33.6 203.1 102.4 11.9 16.1 23 55.7 23 76.6-0.1 68-42.9 122.6-120.8 141.3-21.2 5.1-90.1 7.4-112 7.6-66.2 0.6-132.3 0.5-200.2 0.4v0.1c0 0-21.6-0.1-46.9-0.1-9.8 0-19.4 0-29.3 0l-0.2-589.9h406.1v64.2h-330.8l0.4 192.9 207.6 4.5zm134.4 166.4c0-11.9-11.8-99.3-115.8-95.1h-226v0.1l0.4 190.7h254.3c48.1 0 87.1-38.8 87.1-86.7 0 0 0-9 0-9zm2061.9-1317v575.3h-76.1v-457.4c-0.1 0.1-0.1 0.3-0.1 0.3 0 0-355 455.7-365.6 457.1h-76.1v-575.3c0-9.4 7.5-16.9 16.8-17 19.7-0.3 39.6-0.8 59.4 0l-0.1 112v367.1l365.6-479.1 14.4-0.4v0.2c15.1-0.2 30.1 0 45.1 0.2 9.3 0.1 16.7 7.7 16.7 17zm538.6 889.4c9.3 0.2 16.7 7.7 16.7 17v575.4h-76.2v-457.4c0 0.1-0.1 0.3-0.1 0.3 0 0-354.9 455.7-365.5 457.1h-76.2v-575.4c0-9.3 7.6-16.8 16.9-17 19.7-0.2 39.6-0.8 59.4 0l-0.1 112.1v367.1l365.5-479.2 14.5-0.4v0.2c15.1-0.2 30.1 0 45.1 0.2zm-1330.1 252.9v-252.9h80.6v589h-78.9v-258.9h-350.3v259.5h-77.6v-572.3c0-9.2 7.4-16.6 16.6-16.6h58.5v252.2h351.1zm1819.6-245.9c104 11.1 158.2 95.2 149.1 207.1-7.4 91.2-85.1 164.9-179.3 167.9-55.6 1.8-173.4 0.3-235.9 0.3v80.8h-77.2v-458.1c96.2 0 251.7-7.8 343.3 2zm-12.9 68.9c-60.9-10.6-186.1-8.2-250.9-11.7v248.2c59.8 0 178.7 3.3 235.1-1 57.3-4.4 95.7-49.8 99.7-107.6 4.9-71.2-20.1-116.8-83.9-127.9zm-3581.3-982.3h583v69h-249.4v520.6h-79.4v-518.4h-271.2v-54.2c0-9.4 7.7-17 17-17zm2488.8 912.1q0 0 0 0zm0 0c-1.3 1.1-209.8 187.7-296.1 275.7 108.5 107.5 315.4 298.1 315.4 298.1l-91.4 8.2c-4.7 0.4-9.3-1.1-12.7-4.3l-268.5-245.5-52.3 46.7c0 19.4 0.1 52.2 0 59.8-0.7 47.4 0 94.7 0 144h-76.8v-588.4h60.2c9.1 0 16.6 7.4 16.6 16.6v266l316.7-282.6zm-319.8-1069.4h50.5c0 45.9 40.3 62.2 74.8 62.2 34.5 0 74.8-16.3 74.8-62.2h50.5c0 66.4-51.5 112.7-125.3 112.7-73.7 0-125.3-46.3-125.3-112.7zm-1103.8 451.1c58.9 18.4 140.1 60.2 135.3 153.8-7 67.8-43 122.7-120.8 141.4-21.3 5.1-90.2 7.4-112.1 7.6-90.6 0.8-181.3 0.4-276.3 0.4v-597.1c38.5 0 76.5-0.2 114.5 0.1 58.1 0.6 116.4-1 174.2 3 80.3 5.5 131.4 46.3 147.1 110.9 17.1 70.8-9.1 128.2-80.5 173.6 5.1 1.9 13.9 4.8 18.6 6.3zm-292-29c63.3 0 122.4 2.3 181.4-0.6 49.8-2.5 86.5-38.8 90.9-86.8 4.8-52.1-21.5-98.6-71.3-103.7-66.1-6.6-133.3-1.6-201-1.6zm335.5 167c0-38.8-21.9-66.5-54.6-80-12.9-5.4-44.5-5.7-44.5-5.7-14.9-1.6-112.2-1.9-236.4 0v184.6h248.4c48.2 0 87.1-40.1 87.1-89.6 0 0 0-9.3 0-9.3zm-116.9 474.1l0.4 0.9 266.7 590.7-68.3-0.8c-6.5-0.1-12.3-4-15-9.9l-63.7-143.7h-302.6l-64.1 144.5c-2.7 6-8.6 9.9-15.2 9.9h-73.5l267.1-591.6zm92.1 374l-120-286.7-126.5 286.7zm2131.1 161.8h244.7v54.2h-244.7zm-1605.9-1463.2c94.5 0 178.9 32.5 237.6 91.5 58.5 58.7 89.2 138.6 88.9 231.1-0.6 187.6-134.9 318.6-326.7 318.6-94.9 0-179.7-32.5-238.6-91.7-58.3-58.5-88.9-138.2-88.5-230.5 0.7-187.8 135.3-319 327.3-319zm224.7 227.7c-1.4-4.8-2.8-9.1-4.3-13.4-31.1-88-113.9-146.7-210.9-149.5-102-2.7-186.1 48-225.1 136.1-35.7 80.7-35.5 161.3 0.8 239.8 39.9 86.3 108.8 131.8 204.8 135q5.6 0.2 11.1 0.2c96.2 0 167.9-43.6 207.6-126.2 4.1-8.4 7.7-17.4 11.3-27.3 22-62.1 23.7-131.2 4.7-194.7z"></path> </g> <g id="Layer_x0020_1_0"> <path id="Layer" fill-rule="evenodd" class="s1" d="m1977.1 690.5h343.9l-3.2 106.8c0 599.3-395.2 1021.3-920.3 1048.2v-324.1c0-14.3 10.9-26 25.1-27.5 385.6-42.2 554.5-390.2 554.5-699v-104.4zm340.6-690.5v320.8c0 15.3-12.4 27.8-27.8 27.8h-897.1v695.5h-348.5v-1044.1zm-2289.5 0h902.3v349.3c-397.2 33.4-517 381.4-517 694.8h-324.4c-15.5 0-28.2-12.8-28-28.3 4.8-265.3 77-493.7 202.7-666.5h-263.3v-321.5c0-15.4 12.4-27.8 27.7-27.8zm666.1 1495.2h350.3v350.3h-350.3z"></path> </g> </svg> 