<?xml version="1.0" encoding="UTF-8"?> <svg xmlns="http://www.w3.org/2000/svg" viewBox="0 0 389 94" width="180" height="43"> <title>gazprom_bank_______-ai</title> <style> .s0 { fill: #476bf0 } </style> <g id="Слой 1"> <g id="&lt;Group&gt;"> <path id="&lt;Compound Path&gt;" fill-rule="evenodd" class="s0" d="m359.7 28.7h8l-0.1 12.9h1.7l4.6-12.9h8.6l-6.2 17 7.1 18.7h-9.3l-4.6-14.3h-1.9l0.1 14.3h-8zm-26.8 0h7.9v12.9h5.7v-12.9h7.9v35.8h-7.9v-14.4h-5.7v14.4h-7.9zm-20.5 0h10.2l6.9 35.7h-8.2l-1-6.1h-5.7l-1 6.1h-8.2zm3.6 21.7h3l-1.5-10.9zm-32.6-21.7h18.6v8.6h-10.7v4.7h1.5c4.4 0 11.1 1.6 11.1 10.7 0 10.8-8.8 11.7-10.9 11.7h-9.6zm9.1 28.6c1 0 3.5-0.7 3.5-4.4 0-3.7-2.5-3.7-3.5-3.7h-1.2v8.1zm-40.4-28.6h6.9l6 8.5 6.2-8.5h6.8v35.7h-8.1v-21.7l-4.9 6.2-4.8-6.2v21.7h-8.1zm-29.5 17.9c0-9.2 3.2-18.4 12.8-18.4 9.6 0 12.8 9.2 12.8 18.4 0 9.1-3.2 18.3-12.8 18.3-9.6 0-12.8-9.2-12.8-18.3zm17.1 0c0-6.3-1.4-9.7-4.3-9.7-2.8 0-4.3 3.4-4.3 9.7 0 6.2 1.5 9.6 4.3 9.6 2.9 0 4.3-3.4 4.3-9.6zm-40.5-17.9h10.8c7.6 0 10.5 7.3 10.5 11.9 0 4.7-2.5 12.1-10.5 12.1h-2.7v11.8h-8.1zm8.1 16.1h1.9c1 0 3-0.3 3-4.2 0-2.9-1.2-4.1-3-4.1h-1.9zm-34.8-16.1h22.1v35.8h-8.1v-27.2h-5.9v27.2h-8.1zm-16.6 13.8c1.3 0 3.7-0.9 3.7-3.5 0-3.1-2.7-3.3-3.5-3.3-1 0-2.7 0.1-4.5 1l-0.1-7.8c2.8-0.7 4.7-0.9 7.1-0.9 6.6 0 9.6 4.8 9.6 9.4 0 4.5-2.6 7.2-5 8.3v0.3c2.4 0.8 5.5 3.1 5.5 8.6 0 6.8-4.5 10.5-10.4 10.5-3.2 0-5.2-0.5-7.7-1.9l0.1-7.4c2.3 1 3.9 1.1 5.4 1.1 2.6 0 3.7-2 3.7-3.4 0-2-1.3-3.3-4.1-3.3h-3.2v-7.7zm-24.9-13.8h10.2l6.9 35.7h-8.2l-0.9-6.2h-5.7l-1 6.2h-8.2zm3.5 21.7h3.1l-1.5-11zm-26.1-21.6h16.5v8.9h-8.3v26.8h-8.2z"></path> <path id="&lt;Compound Path&gt;" fill-rule="evenodd" class="s0" d="m5.4 47c0-23.2 18.4-42 41-42 22.6 0 41 18.8 41 42 0 23.1-18.4 42-41 42-22.6 0-41-18.9-41-42zm2 0c0 22 17.5 39.9 39 39.9 21.5 0 38.9-17.9 38.9-39.9 0-22-17.4-39.9-38.9-39.9-21.5 0-39 17.9-39 39.9z"></path> <path id="&lt;Compound Path&gt;" fill-rule="evenodd" class="s0" d="m48.4 17.6q0.4 0 0.9 0c5.3 0.1 11.5 1.9 15.3 5.8 0.7 0.8 1.1 1.6 1.2 2.3 3.1 1.5 4.8 3 5.8 4.7 0.4 1 0.6 2 0.4 3 1.2 0.8 1.9 1.5 2.5 2.3 0.4 0.7 0.8 1.5 0.8 2.3 0.2 0.9 0.3 2-0.7 3.3 1 0.5 1.9 2 2 2.7 0.5 2.3-1 4.6-2.9 6.4-2.3 2-7.2 4.4-11.3 5.4-7.9 2.1-15 3-20.6 4 2.6 0.6 6 1.4 11.5 1.4 12 0 22.5-5.7 22.5-5.7 0 0-0.3 0.7-0.5 1.4-7.6 4.7-19.6 6.6-24.7 6.4-5.2-0.2-9.6-1.1-13.9-2.4-1.3 0.4-2.6 0.8-3.9 1.3 6.6 3.1 11.5 3.8 17.1 4.2 5.7 0.4 15.1-1 23.1-3.9-0.4 0.4-0.6 0.9-1 1.3-4 2.2-12.6 4.4-17 4.6-4.3 0.2-9.5 0-14.1-0.9-3.9-0.8-7.2-2.1-10.5-3.6-0.6 0.5-0.9 1.1-1 1.8 13.1 7 25.3 7.1 39.3 2.7l-1.2 1.2c-15.4 6.4-27.4 3.9-36.7-0.7-0.4-0.1-0.7-0.2-1-0.4 0.9 1.5 8 6.8 15.9 7.5 5.5 0.5 12.2-0.5 16.1-2.1l-2.3 1.2c-1.9 1-7 3.2-14.1 2.7-9.5-0.7-14.8-5-17.2-7.2-1.1-1.1-1.6-2.3-2-3.8-2.1-1.1-3.5-2.3-4.6-4.1-0.6-1-0.5-2.2-0.4-3.2l0.3-0.9c-1-0.8-2.1-1.6-2.5-2.4-0.9-1.7-0.4-3.2 0.3-4.3-0.6-0.7-1.1-1.4-1.3-2.1-0.3-0.7-0.4-1.5-0.3-2.4 0.2-1.4 1-2.7 1.9-3.9 2.1-2.4 5.4-4.3 10.9-6.2 5.5-1.9 7.7-2.2 11.8-3.1 4.8-1.2 10.6-1.5 15.4-3.3-13.4-2.4-27.3-0.2-38.7 7.8l0.7-2.2c10.2-6.8 21.5-10.8 40.5-7.4 1.1-0.7 1.7-1.3 2-2.5-4.8-1.8-10-2.4-16.7-2.3-5.9 0.2-16.7 2.4-22.5 6l1.7-2.3c4.1-2.4 14.6-5.6 22.5-5.8 5.5-0.1 8.4 0.2 15 2-0.6-1.1-2-1.7-4-2.7-6.4-2.9-18.3-3.2-28 1.3q1.8-1.4 4-2.4c3.1-1.4 8-2.8 14.2-2.8zm20 13.9c-0.2-1.3-1.6-2.6-3-3.5-0.1 0.7-0.8 1.5-1.3 2 1.4 0.4 2.9 1 4.3 1.5zm-3.1 4.4c0.5 0 2.1-1.5 2.4-2-1.6-0.7-3.6-1.4-5.7-2-0.9 0.8-2 1.5-3.6 2.1 2.7 0.5 4.6 1.2 6.9 1.9q0 0 0 0zm6.7 3.1c0.6-1.2 0.3-2-1-3.1-0.5 0.6-1.1 1.2-1.7 1.6 1 0.5 1.9 0.8 2.7 1.5zm-40.7 5.1c9.7-2.9 19.9-3.8 30.2-6.6-4-1.1-6.3-1.6-10.5-1.1-6.2 0.8-13 2.1-18.8 3.9-2.3 0.7-14.3 4.2-10.9 9.1 0.1 0 2.1-2.9 10-5.3zm-4.6 9.4c1.5-1 3.5-2 6.6-2.8 5.3-1.4 9.2-2 14-2.9 4.7-0.7 13.7-2.6 18.6-4.4 1.6-0.6 3.1-1.4 4.2-2.3-0.4-0.4-3.5-1.9-3.6-1.8-2 1-4.8 1.9-8.8 2.9-3.3 0.9-11.4 2.1-20 4-2.7 0.6-10.2 2.4-13.8 5.6 1 0.8 1.7 1 2.8 1.7zm8.9 4.3c3.3-1 4.9-1.4 9.8-2.3q5.8-1 11.7-2.2c7.4-1.6 18.3-5.2 15.4-9.8-0.3 0.3-0.7 0.5-1 0.8-2.2 1.8-5.7 3.1-10.5 4.4-10 2.8-17.3 3.2-25.5 5.3-1.6 0.4-3.3 0.9-4.8 1.6 1.5 0.8 3.2 1.5 4.9 2.2zm-13.7-3.7c-0.3 0.9 0.4 1.9 1.2 2.3 0.3-0.3 0.7-0.6 1-0.9-0.9-0.5-1.4-0.9-2.2-1.3zm7.2 6.3q1.3-0.8 2.6-1.3c-1.3-0.6-2.8-1.2-4.2-1.9q-1 0.6-1.7 1.3 1.7 1 3.3 1.9zm-2.8 3.1c0.1-0.4 0.4-0.8 0.7-1.3-0.8-0.4-1.6-0.9-2.4-1.4-0.1 0.9 0.5 1.7 1.7 2.7z"></path> </g> </g> </svg> 