<?xml version="1.0" encoding="UTF-8"?> <svg xmlns="http://www.w3.org/2000/svg" viewBox="0 0 390 122" width="163" height="50"> <title>bank_zenit-ai</title> <style> .s0 { fill: #008fb4 } .s1 { fill: #191646 } </style> <g id="Слой 1"> <g id="&lt;Group&gt;"> <g id="&lt;Group&gt;"> <path id="&lt;Path&gt;" class="s0" d="m5.5 115l54.9-0.1-0.1-54.3c-11.4 21.7-32.8 35.8-54.7 41.1 0 4.1-0.1 13.3-0.1 13.3z"></path> <path id="&lt;Path&gt;" class="s0" d="m23.1 87.6c20.7-10.4 30.6-29.5 30.6-29.5 0 0 0-6.3 0-6.4-11.4-4.1-21.8-9.9-30.6-18.7 0 14.9 0 54.6 0 54.6z"></path> <path id="&lt;Path&gt;" class="s0" d="m26 5.5c0 0 0 16.6 0 20.7 5.4 5.1 8.2 7.4 13.8 11l0.1-22.2c-6.5-3.6-9-5.4-13.9-9.5z"></path> <g id="&lt;Group&gt;"> <path id="&lt;Compound Path&gt;" fill-rule="evenodd" class="s1" d="m104.9 31.4c-1.9 1.6-4.5 2.5-7.9 2.6q-0.3 0-0.6 0-1.4 0-2.7-0.1-1-0.1-1.9-0.1c-1.2 0-3.6 0-3.6 0h-1.1l0.8-7v-14.7l-0.7-6.6h18l-0.2 5.2-5.9-0.8h-5.2v6.5q0.2 0 0.4 0c1.1-0.1 2.2-0.2 3.4-0.1 1.8 0.1 3.4 0.3 4.7 0.8 2.8 0.9 4.5 2.9 5 5.9 0.4 2.4 0.5 5.9-2.5 8.4zm-5.1-9.8c-1.9-1-3.9-0.9-6-0.6v8.4c2.3 0.3 4 0.1 5.5-0.6q1.7-0.7 2.1-2.7 0.1-0.8 0.1-1.7c0-1.3-0.6-2.2-1.7-2.8z"></path> </g> <path id="&lt;Compound Path&gt;" fill-rule="evenodd" class="s1" d="m133.7 29l2.8 4.7h-8.1l-1.1-4-2-4.9h-9l-1.5 3.9-1.1 5-6.2-0.1 3.1-6.6 7.2-18.6 0.7-3.1 5.9-0.1 0.9 3.5zm-12.9-15.4q-0.6 1.5-1.2 3-0.9 2-1.7 4.1 1.4-0.1 2.8-0.1 1.4 0 2.8-0.1z"></path> <path id="&lt;Path&gt;" class="s1" d="m183 33.7l8.2-0.1-13.1-14.7 12.2-13.5h-7.2l-2.1 3.1c0 0-5.5 6-8.5 9.3v-7.3l0.8-5h-7.5l0.5 4.9 0.1 17.5-0.6 5.8h7.5l-0.8-5.8v-6.9z"></path> <path id="&lt;Path&gt;" class="s1" d="m160.7 25.2c0-1.9 0.1-14.6 0.1-14.6l0.6-5.1h-7.4l0.6 4.9c0 0 0 3.8 0 6h-10.5c-0.1-3.2-0.1-6.5 0.7-9.7l0.3-1.2h-7.7l0.1 1.1c0.1 0.3 0.5 4.3 0.6 6.1 0.1 3.8 0 7.7 0 11.4v0.9c0 1.6-0.4 6.5-0.5 7.4l-0.3 1.1h7.5l-0.1-1.1q-0.1-0.9-0.2-1.9c-0.2-1.5-0.4-2.9-0.5-4.3-0.1-1.4-0.1-2.9 0-4.3q0-0.5 0-1h10.7q0 1.1 0 2.1c0.1 3.2 0.1 6.3-0.7 9.3l-0.3 1.2h7.8l-0.2-1.1c-0.5-2.6-0.6-5.2-0.6-7.2z"></path> <path id="&lt;Path&gt;" class="s1" d="m254.5 47.7l0.2-1.2h-15.9l0.1 1.1c0.6 4.8 1 9.3 1.2 13.7 0.2 3.2 0.2 6.5 0.1 9.7q0 1.7 0 3.4h-29.9c-0.1-8.8-0.2-17.8 2-26.7l0.3-1.1h-16.4l0.1 1c0 0.1 1.3 10.8 1.4 15.8 0.3 9.8 0.2 19.7 0.2 29.4l-0.1 2.2c0 4.2-0.9 17-1.4 19.3l-0.2 1.1h15.8l-0.1-1q-0.3-2.5-0.6-5c-0.5-3.6-0.9-7.4-1.1-11.1-0.3-3.7-0.2-7.4-0.2-11.1q0.1-2 0.1-4h30.3c0 2.3 0 4.6 0.1 6.8 0.1 8.4 0.2 16.3-2 24.2l-0.3 1.2h16.5l-0.2-1.1c-1.3-6.8-1.5-13.5-1.6-18.6 0-5.1 0-27.6 0.3-33.9 0.2-5.9 0.6-10.6 1.3-14.1z"></path> <path id="&lt;Path&gt;" class="s1" d="m157.1 107v-24.4c7.6 0.2 22.2 1.4 22.3 1.4l1 0.1 0.1-11.2-23.4 1.3v-19.2c7-0.1 20-0.2 26.8 1.9l1.1 0.3 0.1-1.1c0.5-3.5 0.2-8.4 0.1-8.7v-0.8h-42.2l0.2 1.1c1.4 9 1.3 18.2 1.2 27q0 3.1 0 6.2c0.1 13.1-1.4 33.3-1.4 33.4v1l41.9 0.3v-1c0.1-2.2 0.3-8.2 0.4-9l0.1-1.3-1.2 0.2c-8.4 1.7-16.3 2.5-27.1 2.5z"></path> <path id="&lt;Path&gt;" class="s1" d="m121.3 76.8q0 0 0 0 0.3-0.2 0.5-0.3c3.8-2.6 8.2-6.4 8.5-12.9 0.3-8.9-4.5-15.2-13.4-17.3-7.7-1.8-15.6-1.5-24.1 0.9h-0.1c-4.2 1.1-4.9 1.5-4.8 2.5 0.3 1.8 0.6 3.8 1 5.8 0.2 1.4 0.5 2.9 0.7 4.3 0.1 0.5 0.4 0.9 0.9 1.1 0.5 0.2 1.1 0 1.4-0.4l0.6-0.5c4-4.3 9.2-6.3 15.9-6.1 4.3 0.1 7.8 2.7 8.6 6.5 1.1 5.2-0.8 9.7-4.8 11.5-1.9 0.8-4.1 1.5-6.8 2-2.6 0.4-7.8 0.8-7.8 0.8h-0.9l0.4 8.8h0.9c0 0 4.6-0.2 8.4-0.2 1.8 0 7.3 0.4 10.1 2.1 2.5 1.5 4.3 3.9 4.8 6.5 0.8 3.9 1.4 13.2-8.7 15.5-8.8 1.9-16 0-21.3-5.8-0.5-0.5-0.9-1-1.5-1.5l-0.5-0.6c-0.4-0.4-0.9-0.5-1.3-0.4-0.5 0.2-0.8 0.6-0.9 1.1l-0.2 2.1c-0.3 2.1-0.5 4.1-0.8 6.1-0.3 1.6 0.2 2.7 1.9 3.6 5.9 3.3 12.4 4.9 19.4 4.9q2 0 4.1-0.2c5.6-0.5 10.8-2.5 14.9-5.9 6-5 8.8-11 8.1-17.9-0.7-7.8-5.1-13.3-13.2-16.1z"></path> <path id="&lt;Path&gt;" class="s1" d="m322.3 85.4q0-2.2 0-4.4 0-2 0-4c0-9.8 0-19.9 1.7-29.3l0.2-1.1h-16.4l0.2 1.1c0.5 2.9 1 6 1.4 9.3 0.1 0.9 0 1.4-0.6 2-5.2 5.6-10.3 11.3-15.2 16.8-4.5 5-9.2 10.2-13.9 15.3 0.1-4.3 0-8.6-0.1-12.8-0.2-10.5-0.4-20.5 2.2-30.5l0.3-1.2h-16.9l0.4 1.2c1.6 5.1 1.6 10.2 1.6 15.5v5.1c0 9 0.1 18.3 0 27.4 0 1.3 0 2.7 0 4.1 0.1 2.5 0.2 5.1-0.1 7.6-0.1 1.5-0.5 3-0.9 4.6q-0.2 1.1-0.5 2.2l-0.2 1.1h16.2l-0.1-1.1c-0.4-2.2-0.6-4.4-0.9-6.6q-0.2-1.9-0.4-3.7c-0.1-0.5 0.2-1.3 0.5-1.7 4.6-5 9.2-10.1 13.6-15 5-5.6 10.2-11.3 15.5-17q0 0.9 0 1.7c0 2.7 0 5.2 0 7.8-0.1 3 0 6.1 0 9.1 0 4.6 0.1 9.4-0.1 14-0.1 2.6-0.6 5.1-1 7.8q-0.3 1.8-0.6 3.6l-0.2 1.1h16.2l-0.2-1.1c-1.7-9.1-1.7-19.2-1.7-28.9z"></path> <path id="&lt;Path&gt;" class="s1" d="m363.8 55.7q0-0.2 0.1-0.5l20.8 2.6-1.4-11.4h-51.9l-1.2 11.4 22.3-2.7v1.3c0 8.6 0 40.6 0 42.2l-2.2 16.8h15.8l-2-16.5c0-0.3-0.2-29-0.3-43.2z"></path> </g> </g> </g> </svg> 