<?xml version="1.0" encoding="UTF-8"?> <svg xmlns="http://www.w3.org/2000/svg" width="200" height="21" viewBox="0 0 310 33" fill="none"> <path fill-rule="evenodd" clip-rule="evenodd" d="M59.7007 26.7779L58.4002 16.4099L56.2637 26.7779H53.3005L50.9318 16.4099L49.5106 26.7779H44.2995L47.3184 6.16179H52.7061L54.666 15.2615L56.7375 6.15717H61.9533L64.9118 26.7779H59.7007ZM77.6517 6.16179V11.3412H72.3802V13.9978H76.1097V19.1818H72.3802V21.6539H77.6517V26.7779H67.1598V6.16179H77.6471H77.6517ZM80.4941 6.16179H91.9893V11.7609H88.8496V26.7733H83.5734V11.7655H80.4941V6.15717V6.16179ZM93.94 26.7779L99.0954 6.16179H105.198L110.354 26.7779H105.198L104.367 23.8262H99.9268L99.1558 26.7779H93.94ZM103.419 19.7214L102.179 14.482L100.819 19.7306H103.424L103.419 19.7214ZM123.089 6.16179L127.236 26.7779H121.965L119.712 11.4058H119.294L116.986 26.7779H111.775L115.802 6.16179H123.089ZM139.972 6.16179L144.18 26.7779H138.908L136.656 11.4058H136.238L133.929 26.7779H128.718L132.805 6.16179H139.972ZM161.773 6.16179V26.7779H156.501V17.3139L151.643 26.7779H146.432V6.16179H151.643V16.1055L156.854 6.15717H161.773V6.16179ZM170.779 6.16179V13.9978H174.75V6.15717H179.961V26.7779H174.75V19.1864H170.779V26.7826H165.568V6.1664H170.779V6.16179ZM191.572 6.16179C192.213 6.14406 192.849 6.27005 193.434 6.53037C194.018 6.7907 194.536 7.17865 194.949 7.66534C195.775 8.68922 196.193 10.0175 196.193 11.5856C196.193 12.8494 196.017 13.8133 195.659 14.5374C195.302 15.2015 194.833 15.6858 194.238 15.8657C195.152 16.1067 195.951 16.6624 196.491 17.4338C197.141 18.3378 197.434 19.4862 197.434 20.8099C197.434 22.6824 197.02 24.1859 196.133 25.2144C195.186 26.2983 193.941 26.7826 192.283 26.7826H183.574V6.15256H191.572V6.16179ZM188.846 10.6171V13.5735H189.738C190.504 13.5735 190.922 13.0938 190.922 12.1299C190.922 11.1014 190.504 10.6171 189.738 10.6171H188.846ZM188.846 18.4577V21.474H190.207C191.043 21.474 191.512 20.9897 191.512 19.9658C191.512 19.4862 191.396 19.1218 191.159 18.882C190.91 18.6222 190.568 18.4698 190.207 18.4577H188.846ZM210.647 6.15717V11.3458H205.376V14.0024H210.587V19.1864H205.38V21.6585H210.652V26.7826H200.165V6.1664H210.652L210.647 6.15717ZM222.616 12.794C222.195 12.7786 221.777 12.863 221.396 13.0403C221.015 13.2175 220.681 13.4825 220.424 13.8133C219.945 14.4774 219.713 15.3814 219.713 16.4699C219.713 17.4938 219.945 18.3977 220.48 19.1218C220.72 19.4574 221.042 19.7272 221.415 19.9062C221.789 20.0852 222.202 20.1676 222.616 20.1457C223.206 20.1457 223.624 20.1457 223.917 20.0258C224.27 19.9658 224.567 19.8413 224.804 19.726V26.7826C224.688 26.8425 224.39 26.9025 224.093 26.9624C223.8 27.0224 223.266 27.0224 222.616 27.0224C219.89 27.0224 217.693 25.9985 216.039 23.7662C214.558 21.7738 213.847 19.3617 213.847 16.4699C213.847 13.6334 214.558 11.2213 216.039 9.22884C217.637 7.06115 219.829 5.9773 222.616 5.9773C223.09 5.9773 223.499 5.9773 223.856 6.03726C224.214 6.15717 224.506 6.22174 224.804 6.27709V13.2737C224.571 13.1538 224.27 13.0338 224.093 12.9693C223.61 12.848 223.114 12.7891 222.616 12.794ZM227.59 6.15717H239.141V11.7655H236.002V26.7779H230.73V11.7655H227.59V6.15717ZM247.613 13.8133H250.813C252.294 13.8133 253.539 14.3575 254.482 15.446C255.55 16.5898 256.029 18.0979 256.029 20.0858C256.029 22.0782 255.55 23.7063 254.542 24.9746C254.103 25.5403 253.537 25.9975 252.89 26.3103C252.243 26.6231 251.532 26.7832 250.813 26.7779H242.341V6.16179H254.487V10.4972H247.613V13.8179V13.8133ZM247.613 18.822V21.7738H248.918C249.805 21.7738 250.218 21.2941 250.218 20.2702C250.218 19.786 250.102 19.4216 249.865 19.1818C249.742 19.0584 249.594 18.9625 249.431 18.9005C249.267 18.8384 249.093 18.8117 248.918 18.822H247.613ZM257.687 26.7779L262.842 6.16179H268.88L274.035 26.7779H268.88L268.114 23.8262H263.608L262.837 26.7779H257.682H257.687ZM267.106 19.6061L265.861 14.602L264.496 19.6061H267.106ZM281.973 6.15717V13.9978H285.884V6.15717H291.099V26.7779H285.884V19.1864H281.973V26.7826H276.701V6.1664H281.973V6.15717ZM300.04 6.15717V13.6334L303.658 6.16179H309.046L304.424 15.7458L309.222 26.7779H303.835L300.045 17.9135V26.7779H294.829V6.16179H300.045L300.04 6.15717ZM17.3567 0C26.1813 0.322848 33.2316 7.53619 33.2874 16.3776C33.3072 20.7546 31.5799 24.9611 28.4837 28.0764C25.3875 31.1916 21.1744 32.9619 16.7668 32.9997C12.3559 33.0267 8.1141 31.316 4.97119 28.2426C1.82827 25.1692 0.0406602 20.9837 0.00017464 16.6036C-0.0194524 12.3438 1.61594 8.24053 4.56598 5.14784C7.51601 2.05516 11.5534 0.211287 15.8379 0L15.8565 4.69052C12.8162 4.89009 9.9669 6.23364 7.88962 8.44726C5.81235 10.6609 4.66346 13.5779 4.67719 16.6036C4.69053 18.3681 5.1012 20.1073 5.87912 21.6938C6.65704 23.2803 7.78251 24.6739 9.17308 25.7725L13.6875 13.9655L10.5525 13.9885C10.5525 13.9885 9.93478 13.864 9.58179 14.1546L8.83867 14.8648C8.83867 14.8648 8.77829 12.9185 8.86654 12.7156C8.95479 12.4665 9.20559 10.5156 10.0788 9.5194C10.9612 8.56008 12.3685 8.42633 12.3685 8.42633L22.4006 8.35715L20.9515 9.85609L24.4349 25.4819C25.7443 24.3636 26.793 22.9758 27.5084 21.4149C28.2238 19.8539 28.5887 18.1572 28.5778 16.4422C28.55 13.4298 27.3708 10.5405 25.279 8.35872C23.1871 6.17698 20.3388 4.86581 17.3103 4.69052L17.3567 0ZM13.525 9.73617C13.8269 9.73617 14.0823 9.96678 14.0823 10.2527C14.0823 10.5341 13.8362 10.7693 13.5343 10.7693C13.2277 10.7739 12.9769 10.5433 12.9769 10.262C12.9769 9.97139 13.2184 9.74079 13.525 9.73617Z" fill="#003082"></path> </svg> 