<?xml version="1.0" encoding="UTF-8"?> <svg xmlns="http://www.w3.org/2000/svg" viewBox="0 0 24 24" width="24" height="24"> <title>phone-svg</title> <style> .s0 { fill: #1f52de } </style> <path id="Layer" class="s0" d="m2.4 3.6q0-0.2 0.1-0.5 0.1-0.2 0.3-0.3 0.1-0.2 0.3-0.3 0.3-0.1 0.5-0.1h2.6q0.2 0 0.4 0.1 0.2 0 0.4 0.2 0.1 0.1 0.2 0.3 0.1 0.2 0.2 0.4l0.9 5.3q0 0.2 0 0.4-0.1 0.2-0.2 0.4 0 0.1-0.2 0.3-0.1 0.1-0.3 0.2l-1.9 0.9q0.5 1.3 1.3 2.4 0.7 1.1 1.7 2 0.9 1 2 1.7 1.1 0.8 2.4 1.3l0.9-1.9q0.1-0.2 0.2-0.3 0.2-0.2 0.3-0.2 0.2-0.1 0.4-0.2 0.2 0 0.4 0l5.3 0.9q0.2 0.1 0.4 0.2 0.2 0.1 0.3 0.2 0.2 0.2 0.2 0.4 0.1 0.2 0.1 0.4v2.6q0 0.2-0.1 0.5-0.1 0.2-0.3 0.3-0.1 0.2-0.3 0.3-0.3 0.1-0.5 0.1h-2.4c-8.6 0-15.6-7-15.6-15.6z"></path> </svg> 