<?xml version="1.0" encoding="UTF-8"?> <svg xmlns="http://www.w3.org/2000/svg" viewBox="0 0 100 101" width="100" height="101"> <title>Search-bar-svg</title> <style> .s0 { fill: #1f52de } </style> <path id="Layer" fill-rule="evenodd" class="s0" d="m64.1 70.4c-6.4 5.1-14.5 8.2-23.3 8.2-20.5 0-37.2-16.7-37.2-37.3 0-20.6 16.7-37.2 37.2-37.2 20.6 0 37.3 16.6 37.3 37.2 0 8.8-3.1 16.9-8.2 23.3l25.6 25.5c1.6 1.6 1.6 4.2 0 5.9-1.6 1.6-4.2 1.6-5.9 0zm-23.2-58.1c-16 0-29 13-29 29 0 16 13 28.9 29 28.9 16 0 29-12.9 29-28.9 0-16-13-29-29-29z"></path> </svg> 